<svg xmlns="http://www.w3.org/2000/svg" xmlns:xlink="http://www.w3.org/1999/xlink" width="180" height="105" viewBox="0 0 180 105"><defs><path id="a" d="M165.641 0v101.09H0V0z"/></defs><g fill="none" fill-rule="evenodd"><path fill="none" d="M0 0h180v105H0z"/><g transform="translate(7.854 1.805)"><mask id="b" fill="#fff"><use xlink:href="#a"/></mask><g fill="#E74C3C" mask="url(#b)"><path d="M9.9 43.867h3.801L4.894 65.074h21.791l-1.093 2.635H0l9.9-23.842m53.095 9.573c2.252-5.425-1.07-6.475-6.438-6.475h-9.394c-5.37 0-9.566 1.05-11.818 6.475l-1.931 4.651c-2.255 5.425 1.067 6.473 6.437 6.473h9.397c5.369 0 9.563-1.048 11.815-6.473l1.932-4.651zm-32.173-.227c3.183-7.66 10.31-9.438 19.06-9.438h6.602c8.753 0 14.405 1.777 11.222 9.438l-2.12 5.105c-3.18 7.661-10.308 9.44-19.06 9.44h-6.604c-8.75 0-14.402-1.779-11.22-9.44l2.12-5.105zm68.828 1.071c1.925-4.368 1.246-7.173-5.305-7.173H84.87c-4.764 0-8.635 1.104-10.293 4.967l-1.794 4.32c-2.288 5.38-.704 7.035 4.983 7.035h8.987c6.66 0 10.03-2.252 11.713-6.3l1.183-2.85zm-.902 13.378c-2.939 7.08-10.839 8.506-16.633 8.506H71.611c-8.551 0-9.167-4-7.924-6.988l.323-.782h4.33l-.264.644c-1.262 3.034 2.058 3.908 6.388 3.908h4.548c9.204 0 12.923-.092 15.557-6.436l1.454-3.495h-.11c-1.89 2.206-4.375 3.632-10.873 3.632h-9.585c-7.742 0-10.19-3.356-7.689-9.379l1.623-3.909c3.532-8.504 11.187-9.471 16.385-9.471h9.91c3.517 0 6.73.736 6.606 4.551h.11l1.74-4.183h4.33l-9.722 23.402zm4.609-8.295h4.295l-.473 1.14c-1.192 2.873.087 4.057 4.811 4.057h9.879c6.927 0 9.221-.226 10.662-3.692l.073-.182c.93-2.234.69-3.466-4.841-3.466h-14.227c-6.499 0-8.174-1.78-6.339-6.201l.568-1.368c1.573-3.784 4.966-5.88 16.347-5.88h7.089c10.416 0 10.806 2.552 9.442 5.835l-.512 1.23h-4.293l.092-.226c1.479-3.557-1.275-3.649-6.32-3.649h-8.056c-6.601 0-8.28.548-9.376 3.193l-.363.865c-.794 1.915-.498 3.01 4.333 3.01h12.189c6.927 0 11.405.593 8.792 6.885l-.038.091c-2.71 6.519-9.89 6.748-15.525 6.748h-8.483c-6.82 0-13.212 0-10.313-6.977l.587-1.413m-3.521 12.042h3.016l2.29 3.178h.017l1.363-3.178h1.946l-1.877 4.376h-3.014l-2.29-3.18h-.02l-1.359 3.18h-1.947l1.875-4.376m9.944 0h6.94l-.435 1.016h-4.993l-.301.7h4.732l-.391.907h-4.73l-.3.7h5.105l-.448 1.053h-7.053l1.875-4.376m7.763 0h7.412l-.468 1.087h-2.732l-1.406 3.29h-1.948l1.41-3.29h-2.733l.465-1.087m7.667 0h1.898l-.025 3.214h.017l2.989-3.214h1.806l.234 3.214h.019l2.726-3.214h1.902l-3.936 4.376h-2.233l-.246-2.89h-.014l-2.72 2.89h-2.235l-.182-4.376m13.103 2.423c-.273.635-.185.876.736.876h2.49c.917 0 1.214-.24 1.488-.876l.202-.472c.231-.543.184-.875-.843-.875h-2.278c-1.026 0-1.362.332-1.595.875l-.2.472zm-1.618-.888c.55-1.281 1.72-1.584 3.472-1.584h3.122c1.75 0 2.664.303 2.115 1.584l-.559 1.305c-.549 1.281-1.722 1.584-3.475 1.584h-3.117c-1.752 0-2.666-.303-2.117-1.584l.559-1.305zm11.563.617h3.218c.525 0 .779-.147.915-.46l.062-.145c.167-.388-.085-.46-.696-.46h-3.044l-.455 1.065zm-1.023-2.152h5.87c1.5 0 1.683.514 1.346 1.3l-.12.278c-.251.585-.59.93-1.545 1.077l-.008.009c.548.074.956.249.646.968l-.318.744h-1.945l.224-.526c.2-.46.069-.61-.535-.61h-3.057l-.487 1.136h-1.944l1.873-4.376zm9.086 0h1.944l-.687 1.608h.911l3.143-1.608h2.647l-4.352 2.139 2.879 2.237h-2.752l-2.085-1.68h-.856l-.719 1.68h-1.947l1.874-4.376M51.357 38.587l3.149-7.247h-8.5l-1.029 2.349-11.992-9.21L4.649 41.751h10.248L32.55 30.997 46.582 41.75h8.896l-4.12-3.164"/></g></g></g></svg>