<svg xmlns="http://www.w3.org/2000/svg" xmlns:xlink="http://www.w3.org/1999/xlink" width="173" height="105" viewBox="0 0 173 105"><defs><path id="a" d="M172.843 0v104.701H0V0z"/><path id="c" d="M85.858 68.502h-.006c-7.96 0-16.382-.715-24.928-2.22C25.91 60.113.092 42.747.084 26.237a15.585 15.585 0 0 1 .456-3.762C3.074 12.216 15.762 4.934 33.385 1.974A47868.263 47868.263 0 0 0 45.68 41.888c1.68 5.493 2.618 7.615 4.282 10.007 2.164 3.09 5.636 5.645 10.503 6.016 2.647.202 6.587-.08 8.79-1.386 2.081-1.233 2.346-2.525 2.278-3.702-.144-2.429-1.903-4.054-4.714-4.054-2.884 0-3.783 1.787-3.796 2.965-.018 1.604 1.109 1.85 1.095 3.039-.008.607-.662 1.556-2.464 1.318-2.225-.295-4.077-1.785-5.282-4.384-.283-.604-.63-1.413-1.063-2.794l-2.212-7.262h14.589c-1.906-5.835-5.137-16.2-6.041-19.04h-7.37l5.057 15.918h-7.223L40.568 1.035A120.61 120.61 0 0 1 52.233.503c7.758.014 15.987.723 24.393 2.206 35.097 6.183 61.946 23.712 61.971 40.27a15.064 15.064 0 0 1-.441 3.65c-3.354 13.573-25.157 21.873-52.293 21.873h-.005zM21.063 51.153h8.62c13.223 0 14.154-5.699 13.033-9.756-1.384-5.022-4.948-8.603-20.127-8.625-1.498-4.671-2.791-8.712-3.256-10.16h-7.416c1.36 4.235 9.146 28.541 9.146 28.541zm66.52-21.815c0 6.892 7.345 12.767 15.196 12.767 3.904 0 7.276-1.531 7.276-4.14 0-2.705-2.55-5.488-6.407-6.544-2.398-.678-4.824-1.079-8.894-1.079-.097-.723-.059-1.003-.059-1.394 0-1.838 1.851-3.407 4.427-3.407 3.456 0 6.717 2.678 7.098 3.002l1.285-2.9c-1.033-.905-2.185-1.69-3.495-2.265-2.064-.907-4.43-1.395-7.017-1.395-5.61 0-9.41 2.962-9.41 7.355zm41.114 12.642c4.095 0 4.709-2.057 4.709-3.651 0-1.872-1.565-3.157-3.358-3.157-1.36 0-1.959.462-2.2.664-.624.528-.73 1.068-.8 1.517-.089.529-.294 1.04-1.01 1.139-1.038.138-1.886-.214-2.766-.874-1.19-.894-2.205-2.307-2.946-3.666-.51-.936-.89-1.824-1.102-2.457l-2.863-8.884h-7.423l6.087 19.04h7.198l-1.292-3.816c1.692 1.73 4.857 4.145 7.766 4.145zm-57.661-.33h18.45C87.36 35.73 77.37 30.923 74.611 26.44h11.626l-1.218-3.829H66.14c0 6.016 11.921 12.965 14.188 15.918h-10.29l.998 3.122zm-43.47 6.663L23.559 35.81c5.883.012 9.579.872 11.393 5.789 1.48 4.025.901 6.715-6.092 6.715h-1.294zm71.525-10.276c-1.844-1.194-3.259-3.074-3.812-5.175 3.355.099 5.251.522 6.992 1.676 1.565 1.036 2.268 2.204 2.268 3.188 0 .54-.393 1.387-2.195 1.387-.82 0-2.157-.363-3.253-1.076z"/></defs><g fill="none" fill-rule="evenodd"><mask id="b" fill="#fff"><use xlink:href="#a"/></mask><g mask="url(#b)"><use fill="#E74C3C" xlink:href="#c" transform="matrix(1 0 0 -1 17.506 88.41)"/></g></g></svg>