<svg xmlns="http://www.w3.org/2000/svg" width="180" height="100" viewBox="0 0 180 100"><g fill="none" fill-rule="evenodd"><path fill="#E74C3C" d="M137.885 56.61c-11.796 4.683-27.297 8.861-44.537 11.654-39.226 6.357-72.595 3.132-74.53-7.202-1.057-5.65 7.505-12.254 21.896-18.118-.795.488-1.344 1.22-1.523 2.257-.106.622-.122 1.177.033 1.871.641 2.83 5.86 3.65 6.616 5.441.143.336.1.767.033 1.027-.124.46-.455.93-1.432.93-.921 0-1.48-.497-1.48-1.258v-1.34h-3.94l-.003 1.072c0 3.087 2.579 4.018 5.342 4.018 2.657 0 4.846-.856 5.194-3.163.178-1.196.045-1.979-.016-2.275-.62-2.898-6.196-3.763-6.611-5.384a1.733 1.733 0 0 1-.016-.73c.102-.441.423-.928 1.343-.928.858 0 1.366.5 1.366 1.256v.855h3.664v-.973c0-3.016-2.873-3.487-4.954-3.487-.778 0-1.514.072-2.173.233 11.754-4.626 27.12-8.749 44.188-11.514 39.227-6.36 72.59-3.134 74.522 7.198 1.015 5.41-6.794 11.698-20.098 17.373.56-.523.929-1.23 1.019-2.154a9.42 9.42 0 0 0 .053-.912v-3.716h-5.21v2.021h1.508v2.01a3.2 3.2 0 0 1-.032.527c-.07.37-.44 1.003-1.505 1.003-1.063 0-1.433-.632-1.497-1.003a2.751 2.751 0 0 1-.038-.527V46.34c0-.224.017-.471.063-.654.078-.344.391-1.009 1.462-1.009 1.12 0 1.402.703 1.465 1.01.043.197.051.528.048.526v.776h3.705v-.462s.015-.471-.033-.913c-.27-2.592-2.551-3.42-5.157-3.42-2.608 0-4.834.832-5.16 3.42a9.325 9.325 0 0 0-.062.913l-.003 5.83c.005.26.011.45.053.912.249 2.52 2.564 3.418 5.172 3.418.433 0 .857-.025 1.265-.077zm-13.761-3.166h-.082l-3.376-10.87h-5.456v13.701h3.614l-.202-11.245h.078l3.63 11.245h5.23V42.573h-3.638l.202 10.871zm-66.118-9.588h.082l1.958 12.563h3.951l-2.712-13.846h-6.534L52.026 56.42h3.967l2.013-12.563zm17.133 9.302h-.078l-1.814-10.585h-5.995l-.325 13.846h3.68l.092-12.448h.08l2.457 12.448h3.728l2.455-12.448h.077l.097 12.448h3.671l-.318-13.846h-5.992L75.14 53.158zm18.507.342c-.12.46-.448.921-1.42.921-.908 0-1.462-.497-1.462-1.24l-.003-1.328h-3.9l-.004 1.057c0 3.056 2.555 3.979 5.29 3.979 2.63 0 4.798-.845 5.14-3.131.177-1.187.05-1.96-.013-2.25-.617-2.872-6.137-3.728-6.547-5.333a1.642 1.642 0 0 1-.014-.717c.104-.444.42-.92 1.33-.92.85 0 1.347.49 1.347 1.24v.846h3.636v-.963c0-2.983-2.85-3.451-4.91-3.451-2.584 0-4.702.803-5.085 3.041a4.496 4.496 0 0 0 .035 1.85c.632 2.8 5.8 3.613 6.547 5.387.145.333.098.752.033 1.012zm13.716-.157c-.07.34-.389 1.005-1.408 1.005-1.027 0-1.337-.665-1.416-1.005a3.126 3.126 0 0 1-.035-.53V42.567h-3.712V52.5c-.008.254.019.778.031.91.258 2.584 2.428 3.423 5.13 3.423 2.7 0 4.868-.839 5.128-3.424.013-.13.04-.655.032-.91v-9.932h-3.716v10.246a2.7 2.7 0 0 1-.034.53z"/><path fill="none" d="M0 0h180v100H0z"/></g></svg>