<svg xmlns="http://www.w3.org/2000/svg" width="210" height="100" viewBox="0 0 210 100"><g fill="none" fill-rule="evenodd"><path d="M164.93 43.237V60.11c0 .89-.018.918-.91.918-1.43 0-2.851-.02-4.281.009-.548.01-.771-.178-.771-.758.01-7.304.01-14.608-.01-21.912 0-.543.15-.806.725-.796 2.721.018 5.452.028 8.173.018 1.142 0 1.987.506 2.59 1.461 2.081 3.259 4.17 6.518 6.242 9.786 1.346 2.107 2.684 4.223 4.02 6.33.112.178.233.337.493.477V38.741c0-1.152 0-1.152 1.161-1.152h3.696c1.124 0 1.133.01 1.133 1.115v21.191c0 1.133 0 1.142-1.114 1.142-2.526 0-5.062-.047-7.588 0-1.495.028-2.507-.562-3.306-1.845-3.204-5.15-6.464-10.263-9.705-15.394-.13-.206-.27-.412-.408-.628-.028.02-.084.038-.14.066zm-135.953-.002V59.97c0 1.039-.019 1.058-1.059 1.058-1.365 0-2.73-.028-4.086.01-.678.018-.855-.263-.855-.88.01-3.296-.009-6.581-.009-9.876-.01-3.856-.01-7.713-.01-11.579 0-1.104.01-1.132 1.124-1.132 2.592 0 5.192.019 7.783.019 1.142 0 1.987.505 2.591 1.46 2.182 3.426 4.374 6.851 6.566 10.277a3297.32 3297.32 0 0 1 3.705 5.832c.112.178.242.346.511.515V38.591c0-1.001 0-1.01 1.022-1.01 1.384 0 2.767.009 4.151-.01.53-.01.78.14.78.74-.01 7.328-.01 14.648 0 21.977 0 .534-.186.74-.715.74-2.814-.019-5.619-.019-8.432-.028-1.19 0-2.025-.553-2.657-1.564-3.269-5.213-6.565-10.399-9.853-15.603l-.418-.646c-.037.019-.093.028-.14.047zm49.975 17.802H69.9c-.846 0-.882-.038-.882-.88v-3.334c0-.842.036-.88.882-.88h16.377c1.424 0 1.58-.168 1.58-1.61 0-1.423-.303-1.779-1.681-1.91-3.557-.328-7.123-.59-10.67-.983a14.49 14.49 0 0 1-3.713-.918c-1.746-.683-2.702-2.106-2.775-4.035-.046-1.301-.129-2.63.055-3.904.377-2.687 2.178-4.373 4.953-4.803.846-.131 1.7-.188 2.555-.197 5.266-.019 10.532-.01 15.798-.01 1.121 0 1.13.02 1.13 1.18 0 1.05-.009 2.098 0 3.137.01.487-.174.74-.67.74-.258 0-.515.018-.772.018-4.798-.009-9.586-.009-14.383-.018h-.579c-1.461.009-2.086.927-1.498 2.322.129.3.579.608.919.646 2.638.3 5.275.515 7.913.805 1.865.206 3.75.384 5.578.805 2.868.655 4.301 2.584 4.375 5.57.027 1.087.055 2.192-.083 3.259-.404 3.062-1.994 4.653-5.036 4.822-3.033.168-6.075.121-9.108.168-.404.019-.808.01-1.213.01zm29.02-.073h-9.019c-.806 0-.87-.074-.87-.896v-3.324c0-.785.074-.85.852-.85h16.38c1.392 0 1.566-.177 1.557-1.625 0-.28-.037-.56-.082-.84-.101-.588-.449-.915-1.035-.971-1.804-.168-3.608-.308-5.411-.504-2.665-.29-5.338-.542-7.994-.944-.833-.12-1.639-.588-2.39-1.036-.934-.56-1.52-1.475-1.73-2.558-.311-1.607-.376-3.25-.083-4.865.504-2.746 2.18-4.352 4.954-4.781.86-.13 1.74-.187 2.61-.187 5.2-.019 10.401-.01 15.611-.01.192 0 .385.01.577.01.384 0 .586.178.586.598a246.66 246.66 0 0 0 0 3.847c0 .373-.183.56-.54.57-.275.009-.55.027-.834.027-4.78 0-9.55-.009-14.33-.018h-.576c-1.492.009-2.014.728-1.602 2.222.137.504.494.728.989.775 2.206.205 4.413.402 6.62.654 2.261.261 4.55.439 6.766.924 2.93.635 4.331 2.577 4.404 5.64.028 1.018.073 2.054-.046 3.063-.366 3.1-1.996 4.752-5.063 4.92-3.424.187-6.858.16-10.292.234-.009-.028-.009-.047-.009-.075zm47.996.054h-3.763c-.793 0-1.587-.028-2.38.019-.58.028-.913-.197-1.125-.75-.452-1.18-.969-2.332-1.43-3.503-.138-.346-.323-.496-.71-.496-4.123.009-8.246 0-12.369.028-.221 0-.544.234-.646.45a57.73 57.73 0 0 0-1.466 3.484c-.212.543-.517.787-1.107.777-1.78-.028-3.57-.01-5.35-.018-.692 0-.802-.178-.516-.834 3.08-7.044 6.18-14.078 9.233-21.141.452-1.05 1.088-1.49 2.213-1.461 2.574.056 5.156.037 7.73.028 1.042-.01 1.715.421 2.149 1.414 3.071 7.053 6.17 14.088 9.26 21.132.111.243.167.515.277.87zm-10.958-9.601c-.12-.31-.193-.506-.267-.703-.969-2.416-1.965-4.833-2.906-7.259-.24-.618-.627-.805-1.236-.787-.645.019-1.245-.056-1.577.768-.977 2.483-2.029 4.946-3.053 7.41-.074.168-.12.355-.194.57h9.233zm-88.042-2.121V38.499c0-.89.018-.909.878-.918 1.586 0 3.173.019 4.759-.01.582-.009.833.188.833.815-.009 7.286-.009 14.571 0 21.857 0 .58-.215.805-.788.796a121.315 121.315 0 0 0-4.884 0c-.646.009-.816-.253-.807-.89.018-3.605.009-7.23.009-10.853z" fill="#E74C3C" fill-rule="nonzero"/><path fill="none" d="M0 0h210v100H0z"/></g></svg>