<svg xmlns="http://www.w3.org/2000/svg" width="170" height="100" viewBox="0 0 170 100"><g fill="none" fill-rule="evenodd"><path d="M52.648 54.644v-17.54c0-1.87-.656-2.422-2.864-2.433h-1.121c-1.774-.02-2.745-.75-2.753-2.066-.008-1.315.985-2.078 2.737-2.08 7.236-.005 14.472-.024 21.708.014 1.653.009 2.9-.28 3.539-1.75.35-.805 1.243-1.2 2.253-1.31a9.583 9.583 0 0 1 1.017-.03h34.245c1.337 0 1.338 0 1.34 1.148 0 .81-.035 1.622.012 2.43.037.643-.25.864-1 .858-2.684-.027-5.367-.011-8.047-.008a8.639 8.639 0 0 0-1.118.046c-1.463.195-2.118.849-2.119 2.122-.003 8.51-.003 17.019 0 25.528v2.17c0 1.217-.541 2.143-1.798 2.818-3.443 1.857-6.845 3.77-10.26 5.667-.805.448-1.643.741-2.573.326-.93-.416-.975-1.179-.975-1.955.003-11.114.003-22.228 0-33.343.015-.405.001-.81-.041-1.214-.201-1.38-.83-2.023-2.45-2.097-1.959-.091-3.93 0-5.895.048-.836.02-1.382.441-1.656 1.103-.473 1.143-1.446 1.617-2.826 1.581a10.338 10.338 0 0 0-1.221.03c-1.32.124-1.864.6-1.954 1.723a17.36 17.36 0 0 0-.043 1.388c0 8.596-.075 17.193.035 25.788.043 3.292-1.5 5.635-4.671 7.387-4.018 2.218-7.951 4.548-11.97 6.77-3.53 1.95-7.263 2.485-11.173.8-1.721-.743-2.848-1.89-2.99-3.579-.251-2.972 2.57-4.908 6.165-4.285 1.693.294 2.716 1.213 3.401 2.499.351.653.694 1.336 1.207 1.896 1.08 1.177 2.64 1.017 3.25-.384a7.467 7.467 0 0 0 .583-2.876c.052-5.729.026-11.46.026-17.19zm62.83-9.878c0-5.411.02-10.822-.02-16.233-.006-.836.265-1.096 1.245-1.086 4.342.042 8.685.042 13.028 0 .909-.007 1.222.206 1.219 1.028-.031 8.495-.035 16.99-.011 25.485 0 1.312-.563 2.23-1.894 2.942-3.317 1.777-6.558 3.66-9.846 5.478-.469.259-1.015.486-1.557.557-1.143.149-1.95-.424-2.117-1.418a6.857 6.857 0 0 1-.047-1.132c-.002-5.206-.002-10.413 0-15.62zm7.735-24.763c1.898 0 3.796-.006 5.694 0 1.63.007 2.633.707 2.712 1.879.08 1.14-.876 2.06-2.454 2.084-3.964.058-7.93.058-11.897 0-1.682-.025-2.549-.87-2.48-2.127.072-1.172 1.033-1.828 2.73-1.836h5.695z" fill="#E74C3C" fill-rule="nonzero"/><path fill="none" d="M0 0h170v100H0z"/></g></svg>