<svg xmlns="http://www.w3.org/2000/svg" xmlns:xlink="http://www.w3.org/1999/xlink" width="150" height="105" viewBox="0 0 150 105"><defs><path id="a" d="M117.03 0v72.208H0V0z"/></defs><g fill="none" fill-rule="evenodd"><g transform="translate(16 16)"><mask id="b" fill="#fff"><use xlink:href="#a"/></mask><g fill="#4A4A4A" mask="url(#b)"><path d="M83.65 22.572V12.164c0-.731-.202-1.235-.608-1.512-.406-.277-1.033-.416-1.882-.416v-.578h6.792v.578c-.877 0-1.55.14-2.016.422-.467.28-.7.783-.7 1.506v15.42h-1.133L71.651 12.549v11.565c0 .683.094 1.209.283 1.578.189.37.458.633.807.79.349.156.816.266 1.4.33v.772H67.35v-.771c.736-.073 1.276-.157 1.62-.253.345-.097.614-.311.807-.645.193-.333.29-.87.29-1.608V12.742c0-1.004-.21-1.673-.63-2.006-.42-.333-1.115-.5-2.087-.5v-.578h5.434l10.868 12.914zm13.838-2.16l-5.434-8.288c-.273-.482-.552-.838-.835-1.066a2.203 2.203 0 0 0-.905-.452 14.226 14.226 0 0 0-1.43-.217v-.771h8.378v.77c-.916 0-1.564.04-1.946.115-.382.077-.573.231-.573.464 0 .145.085.337.254.578l4.529 6.94 4.075-6.554c.236-.345.354-.614.354-.807 0-.25-.163-.412-.488-.488-.326-.076-.96-.159-1.904-.247v-.771h7.245v.77c-1.113.137-1.882.268-2.306.392-.425.125-.788.444-1.09.958l-4.98 7.903v5.011c0 .587.12 1.022.36 1.308.24.285.524.47.85.554.325.084.827.17 1.506.259v.77h-8.377v-.77c1.038-.097 1.75-.277 2.137-.542s.58-.727.58-1.386v-4.433zm-68.504 6.401c.754-.065 1.356-.159 1.804-.283.448-.125.787-.342 1.019-.65.23-.31.346-.77.346-1.38V12.742c0-.667-.054-1.155-.162-1.464-.109-.309-.276-.496-.503-.56-.226-.064-.608-.096-1.146-.096-.726 0-1.495.188-2.306.566a8.662 8.662 0 0 0-2.215 1.482 7.816 7.816 0 0 0-1.592 2l-.906-.386 2.038-4.626H41.89l2.264 4.626-.906.385c-.424-.634-.979-1.26-1.662-1.879a10.187 10.187 0 0 0-2.257-1.548c-.821-.413-1.628-.62-2.42-.62-.49 0-.861.042-1.111.126-.25.085-.43.263-.538.536-.108.273-.162.695-.162 1.265V24.5c0 .643.127 1.125.382 1.446.254.322.582.526.983.615.401.088 1.002.172 1.804.253v.77h-9.282v-.77zM7.741 22.91l.906-.385c.953 1.044 1.86 1.88 2.724 2.506.863.626 1.679 1.08 2.448 1.36.769.282 1.488.423 2.158.423.83 0 1.568-.183 2.214-.549.646-.365 1.142-.809 1.486-1.33.344-.523.517-1.005.517-1.446-.057-.932-.446-1.685-1.168-2.26a7.366 7.366 0 0 0-2.292-1.258c-.807-.265-1.967-.6-3.481-1.006-1.514-.406-2.521-.761-3.021-1.066-.632-.426-1.111-.944-1.437-1.554a4.04 4.04 0 0 1-.488-1.928c0-.626.137-1.253.41-1.879a5.435 5.435 0 0 1 1.16-1.687 5.49 5.49 0 0 1 1.833-1.186 6.24 6.24 0 0 1 2.37-.44c.614 0 1.128.052 1.543.157.415.104.92.255 1.514.451.594.197 1.038.296 1.33.296.444 0 .868-.173 1.274-.518l2.037 4.24-.905.386a8.838 8.838 0 0 0-1.932-2.23c-.74-.601-1.5-1.043-2.278-1.324a6.667 6.667 0 0 0-2.271-.422c-.66 0-1.267.11-1.818.331a3.112 3.112 0 0 0-1.33.976 2.68 2.68 0 0 0-.56 1.512c0 .843.272 1.516.814 2.018a5.33 5.33 0 0 0 1.84 1.12c.684.245 1.766.575 3.247.988 1.481.414 2.533.773 3.156 1.078a5.955 5.955 0 0 1 1.627 1.139c.443.446.774.927.99 1.445.217.518.326 1.055.326 1.609 0 .875-.255 1.706-.764 2.493-.51.787-1.248 1.436-2.215 1.946-.967.51-2.087.781-3.36.813-.415 0-.814-.034-1.196-.102a20.453 20.453 0 0 1-1.323-.29 32.38 32.38 0 0 0-1.224-.283 4.58 4.58 0 0 0-.913-.096c-.736 0-1.372.257-1.91.771L7.74 22.91zm-.244 26.926v-.964c.887 0 1.562-.15 2.024-.452.462-.301.693-.857.693-1.668V34.416c0-.795-.221-1.316-.665-1.56-.443-.245-1.127-.368-2.052-.368v-.578h9.283c1.547 0 2.87.19 3.97.572 1.098.382 1.91.882 2.433 1.5.524.618.786 1.285.786 2 0 .698-.241 1.365-.722 2-.481.634-1.177 1.154-2.087 1.56-.91.405-1.993.624-3.248.656 1.236.08 2.326.271 3.269.572.943.302 1.722.665 2.335 1.09.613.426 1.073.902 1.38 1.428.306.526.46 1.074.46 1.645 0 .618-.18 1.216-.538 1.795-.359.578-.913 1.108-1.663 1.59s-1.663.855-2.738 1.12c-1.076.265-2.288.398-3.637.398H7.497zm5.66-10.216h3.17c1.51 0 2.642-.321 3.396-.964.755-.642 1.132-1.478 1.132-2.506 0-.803-.233-1.48-.7-2.03-.467-.55-1.085-.96-1.854-1.228a7.295 7.295 0 0 0-2.426-.404c-.66 0-1.182.044-1.564.133-.382.088-.67.267-.863.536-.194.269-.29.688-.29 1.259v5.204zm0 .964v5.975c0 .723.137 1.253.411 1.59.274.337.644.542 1.11.614.468.073 1.168.109 2.102.109.623 0 1.326-.127 2.109-.38a5.04 5.04 0 0 0 2.03-1.228c.57-.567.856-1.287.856-2.163a1.24 1.24 0 0 0-.007-.15.985.985 0 0 1-.007-.127c0-.707-.156-1.327-.467-1.861-.311-.534-.757-.98-1.337-1.337-.58-.358-1.252-.62-2.017-.79a11.697 11.697 0 0 0-2.518-.252h-2.264zm41.061-9.028l-.735.064a11.91 11.91 0 0 0-1.673.316c-3.699.992-6.53 3.478-7.514 6.594-.362 1.146-.36 3.27.004 4.422 1.11 3.524 4.676 6.295 8.876 6.895.304.043 1.21.085 2.012.091 1.22.01 1.47-.014 1.527-.14.058-.127-2.25-17.162-2.433-17.962l-.064-.28zm-2.833 6.937l.175.483h.567l-.46.298.175.483-.457-.3-.46.3.178-.483-.46-.298h.567l.175-.483zm-2.165 5.55l.239.668h.788l-.639.41.247.671-.635-.416-.636.416.243-.671-.635-.41h.785l.243-.668zm-22.919 4.862c.953 0 1.644-.137 2.073-.41.43-.273.644-.78.644-1.518V34.834c0-.795-.205-1.38-.615-1.753-.41-.374-1.111-.56-2.102-.56v-.771h9.962c1 0 1.892.128 2.675.385.783.257 1.44.607 1.974 1.048.533.442.931.934 1.195 1.476a3.87 3.87 0 0 1 .397 1.717c0 .715-.201 1.405-.602 2.072-.4.666-1.012 1.23-1.832 1.692-.821.462-1.788.75-2.901.862l4.302 6.36c.283.482.591.834.926 1.055.335.22.668.357.998.41.33.051.745.078 1.245.078v.77h-4.98L34 41.196h-2.04v5.782c0 .546.137.958.41 1.235.274.277.612.462 1.013.554.4.092.832.139 1.294.139v.77H26.3v-.77zm5.66-8.481c.227.016.566.024 1.02.024 1.14 0 2.169-.115 3.084-.344.915-.229 1.672-.602 2.271-1.12.6-.518.965-1.195 1.097-2.03.01-.08.014-.197.014-.35 0-.714-.212-1.387-.637-2.017-.424-.63-1.035-1.133-1.832-1.506-.797-.374-1.715-.56-2.752-.56-1.51 0-2.265.642-2.265 1.927v5.976zm62.147 2.047v4.24c0 .82.208 1.384.623 1.693.415.31 1.113.516 2.094.62v.772h-8.377v-.771c.51 0 .965-.067 1.365-.2.401-.132.727-.387.977-.764.25-.378.375-.892.375-1.542V34.376c0-.555-.215-.956-.644-1.205-.43-.25-1.12-.426-2.073-.53v-.771h8.377v.77c-.953.113-1.644.268-2.073.465-.43.196-.644.556-.644 1.078v6.746l7.472-6.36c.433-.37.65-.711.65-1.025 0-.265-.186-.482-.558-.65-.373-.169-.932-.253-1.677-.253v-.771h8.15v.77c-1.085.202-1.955.408-2.61.621-.656.213-1.144.456-1.465.73l-5.207 4.432 6.113 8.289c.801 1.357 2.16 2.128 4.075 2.313v.77h-8.83v-.77c1.566 0 2.349-.241 2.35-.723-.001-.25-.18-.586-.539-1.012L96.6 40.35l-2.49 2.121zM51.053 10.292c-.29.006-1.816.778-2.672 1.363-1.312.898-2.242 1.884-2.982 3.16-.595 1.023-.865 1.603-1.014 2.404-.077.416-.156.89-.157 1.516a7.154 7.154 0 0 0 .213 1.75c.134.591.3 1.045.672 1.804.735 1.502 2.326 3.106 4.06 4.094 1.074.612 1.882.933 3.172 1.258.51.128 1.048.237 1.195.24.245.005.261-.024.2-.359-.037-.2-.632-4.145-1.324-8.765-.691-4.62-1.288-8.426-1.323-8.456-.008-.007-.02-.01-.04-.01zm-2.108 9.118l.253.707.831-.003-.674.435.257.707-.667-.44-.67.44.256-.707-.67-.435.827.003.257-.707zm6.497-9.832c-.427-.002-.912-.012-1.346.02-.955.07-1.787.238-2.09.39-.075.038 1.864 2.665 4.888 6.624l5.697 7.466.692.905.486-.534c1.938-2.126 2.652-5.287 1.826-8.089-.809-2.746-3.288-5.197-6.24-6.166-.848-.278-1.482-.439-2.182-.526a14.373 14.373 0 0 0-1.731-.09zm5.904 3.62l.214.596h.7l-.568.364.218.596-.564-.368-.564.368.218-.596-.567-.364h.7l.213-.596z"/><path d="M77.441 31.564c-1.177.005-1.571.12-2.306.29a12.822 12.822 0 0 0-4.47 1.98l-.532.374 5.784 7.623c3.18 4.194 5.801 7.629 5.822 7.63.02.002.406-.154.856-.346 2.848-1.216 4.82-3.366 5.637-6.142.14-.473.32-1.07.321-2.16.002-1.842-.363-2.777-1.198-4.227-1.318-2.287-3.56-4.015-6.458-4.678-.962-.22-1.203-.281-2.9-.35-.203-.01-.388.006-.556.006zm-.543 3.904l.257.708.827-.003-.67.437.256.705-.67-.438-.671.438.26-.705-.674-.437.831.003.254-.708zm8.755 2.798l.214.595.7-.003-.568.367.217.596-.563-.37-.564.37.218-.596-.568-.367.7.003.214-.595zm-3.61 4.607l.17.483h.571l-.46.298.175.483-.457-.301-.46.3.178-.482-.46-.298h.567l.175-.483zm-71.53 11.109v5.95c0 .25.048.483.144.701.096.218.24.408.433.572a2.1 2.1 0 0 0 .713.385c.284.093.609.14.975.14.367 0 .692-.047.976-.14a2.1 2.1 0 0 0 .713-.385 1.59 1.59 0 0 0 .432-.572c.096-.218.144-.451.144-.7v-5.951h1.048v5.88c0 .42-.08.796-.242 1.127-.162.33-.389.608-.681.834a3.174 3.174 0 0 1-1.048.52 4.7 4.7 0 0 1-1.342.18c-.488 0-.936-.06-1.341-.18a3.177 3.177 0 0 1-1.048-.52 2.334 2.334 0 0 1-.68-.834 2.533 2.533 0 0 1-.243-1.126v-5.881h1.047zm11.171 8.425v-8.425h1.505l4.124 6.488h.053v-6.488h.943v8.425h-.865l-4.791-7.515h-.026v7.515h-.943zm13.5-8.425v8.425h-1.046v-8.425h1.047zm4.644 0h1.047l2.33 6.908h.026l2.344-6.908h1.06l-2.932 8.425h-.956l-2.92-8.425zm16.89 0v.793h-4.62V57.6h3.285v.794h-3.286v3.22h4.884v.794h-5.93v-8.425h5.668zm6.035 3.804h1.898c.725 0 1.272-.123 1.643-.368s.557-.636.557-1.173c0-.28-.053-.515-.157-.706a1.179 1.179 0 0 0-.446-.455 2.05 2.05 0 0 0-.693-.239 5.426 5.426 0 0 0-.917-.07h-1.885v3.01zm-1.047 4.62v-8.424h3.037c1.03 0 1.813.192 2.35.577.537.386.805.932.805 1.64 0 .599-.174 1.073-.524 1.423-.349.35-.803.607-1.361.77l2.003 4.015h-1.14l-1.91-3.828h-2.213v3.828h-1.047zm16.032-6.277a2.066 2.066 0 0 0-.275-.572 1.888 1.888 0 0 0-.458-.467 2.254 2.254 0 0 0-.642-.315 2.715 2.715 0 0 0-.825-.117c-.55 0-.98.113-1.289.339-.31.226-.47.548-.478.968 0 .234.074.432.222.595.149.164.347.31.596.438s.533.247.851.356l.976.332c.331.113.659.236.982.368.323.132.608.29.857.473s.45.398.602.647c.153.25.23.541.23.876 0 .303-.053.602-.158.898-.104.296-.281.56-.53.793-.249.234-.576.422-.982.566-.406.144-.91.216-1.512.216-.515 0-.958-.068-1.329-.204a3.344 3.344 0 0 1-.949-.52 3.162 3.162 0 0 1-.655-.705 6.616 6.616 0 0 1-.445-.765l.956-.303c.096.226.214.44.353.642.14.202.308.383.504.543.197.159.428.285.694.379a2.8 2.8 0 0 0 .924.14c.698 0 1.22-.144 1.564-.432.345-.288.517-.65.517-1.085 0-.358-.13-.648-.393-.87a3.724 3.724 0 0 0-.981-.577c-.393-.164-.82-.313-1.284-.45a8.31 8.31 0 0 1-1.283-.49 3.292 3.292 0 0 1-.981-.705c-.262-.28-.393-.642-.393-1.085 0-.304.067-.588.203-.852a2.06 2.06 0 0 1 .576-.689c.249-.194.548-.348.897-.46.349-.114.737-.17 1.165-.17.742 0 1.383.171 1.924.513.541.343.938.864 1.191 1.564l-.942.187zm7.592-2.147v8.425h-1.047v-8.425h1.047zm8.57.793v7.632h-1.047v-7.632h-2.828v-.793h6.703v.793H93.9zm8.997 4.084l-2.906-4.877h1.152l2.278 3.862 2.278-3.862h1.152l-2.907 4.877v3.548h-1.047v-3.548zm-26.419-8.903c-.298-.035-.588-.106-.645-.157-.095-.085-6.9-11.26-7.609-12.496l-.313-.545.384-.546c.211-.3.42-.514.464-.475.045.039 2.197 3.241 4.783 7.117l4.753 7.12c.06.085-1.039.075-1.817-.018zM56.464 31.6c.348.024.65.062.67.085l4.42 16.544c-.614.34-1.273.65-1.926.936-1.29-5.786-2.448-11.593-3.734-17.38-.063-.225-.05-.23.57-.186zm14.961 16.675c-2.696-1.657-4.346-4.1-4.582-6.787-.075-.862.033-2.327.172-2.327.043 0 1.162 2.1 2.486 4.665 1.325 2.566 2.376 4.664 2.337 4.662-.038-.001-.224-.097-.413-.213zM61.23 39.148c-1.335-3.857-2.406-7.03-2.38-7.052.026-.022.334.08.686.227l.639.267.332.831 2.354 5.886 2.022 5.054-.543.899c-.298.494-.574.899-.613.899-.038 0-1.162-3.155-2.497-7.011zm2.96-1.11l-1.636-3.591-.222-.486.418.34c.658.536 1.708 1.945 2.112 2.833.496 1.09.816 2.462.774 3.32l-.033.688-1.414-3.104zM53.808 21.315c-.773-3.667-1.386-6.684-1.364-6.703.023-.02.543 1.745 1.155 3.922s1.462 5.193 1.888 6.704l.776 2.745h-1.049l-1.406-6.668zm3.692 6.363c-.16-.375-4.513-13.334-4.487-13.356.018-.014 1.252 2.974 2.743 6.64 1.491 3.666 2.698 6.676 2.683 6.689-.016.013-.22.054-.455.091-.313.05-.443.033-.484-.064zm-3.1-11.692c-.523-1.119-.937-2.047-.918-2.063.019-.016 1.389 2.496 3.045 5.582a3042.09 3042.09 0 0 0 3.499 6.51l.488.898-.332.146c-.183.08-.383.147-.444.147s-1.073-2.067-2.248-4.593a4106.25 4106.25 0 0 0-3.09-6.627zm4.07 5.242a917.561 917.561 0 0 0-3.63-6.074c-.41-.669-.692-1.172-.628-1.118.064.053 1.913 2.727 4.108 5.941l3.992 5.844-.37.252c-.279.19-.397.222-.478.133-.06-.065-1.407-2.305-2.994-4.978z"/></g></g><path d="M0 0h150v105H0z"/></g></svg>