<svg xmlns="http://www.w3.org/2000/svg" xmlns:xlink="http://www.w3.org/1999/xlink" width="215" height="150" viewBox="0 0 215 150"><defs><path id="a" d="M174.49 0v128.807H0V0z"/><linearGradient id="c" x1="18.878%" x2="85.793%" y1="16.251%" y2="88.814%"><stop offset="0%" stop-color="#FFF"/><stop offset="34.27%" stop-color="#FFF"/><stop offset="55%" stop-color="#FFF"/><stop offset="100%" stop-color="#C2CAE3"/></linearGradient><linearGradient id="d" x1="18.581%" x2="81.899%" y1="2.282%" y2="98.45%"><stop offset="0%" stop-color="#FFF"/><stop offset="30%" stop-color="#FFF"/><stop offset="50.56%" stop-color="#D4D9EC"/><stop offset="70%" stop-color="#FFF"/><stop offset="100%" stop-color="#FFF"/></linearGradient></defs><g fill="none" fill-rule="evenodd"><g transform="translate(20.174 11)"><mask id="b" fill="#fff"><use xlink:href="#a"/></mask><g mask="url(#b)"><path fill="#4A4A4A" d="M7.372 73.85l-1.333-.592 5.528-.685c.098.162.194.306.306.457l-4.501.82zm14.838 0l1.334-.628-5.497-.666c-.048.18-.194.323-.293.474l4.456.82zm-.802.094l-1.675.57-2.38-.734-.207-.066c.08-.063.144-.127.207-.213.1-.08.18-.196.274-.28l3.781.723zm4.42-1.584l-1.53.72-6.107-.72c.05-.146.098-.293.143-.443l7.494.443zm.546-.216l1.995-1.286H17.566c0 .458-.065.852-.213 1.19-.415 1.094-1.459 1.619-2.505 1.603-1.026-.03-2.074-.57-2.54-1.568a2.883 2.883 0 0 1-.257-1.225H1.214l1.977 1.286 8.28-.435c.16.601.453 1.125.837 1.512a3.512 3.512 0 0 0 2.54 1.095c.918.02 1.848-.322 2.505-1.075.355-.391.628-.898.79-1.507l8.231.41zm-9.021 3.336l.213.393-.213.1-.56.261-.643-1.292a4.415 4.415 0 0 1-1.302.242 4.11 4.11 0 0 1-1.417-.195l-.544 1.245c-.178.014-.42 0-.579-.117a.425.425 0 0 1-.194-.243l.194-.33.466-.848c-.146-.1-.273-.165-.404-.295l.387-.473c.662.41 1.384.635 2.092.635.708.018 1.412-.212 2.072-.685l.432.13.18.068c-.064.047-.113.093-.18.145-.127.13-.239.26-.445.375l.445.884zm0-6.684a4.38 4.38 0 0 1 .888 1.848h-.69a3.845 3.845 0 0 0-.198-.62c-.461-1.242-1.413-2.124-2.505-2.86-.145-.083-.274-.18-.418-.261l.418.147c.995.408 1.88.964 2.505 1.746zm-1.865 4.61c.182-.033.452-.133.662-.296l-1.096-2.205 1.142-.554-.962-.848-.386.178-1.657.765.487 1.111.784-.357 1.026 2.205zm-2.987.308c-.065-.047-.131-.111-.193-.163a1.866 1.866 0 0 1-.318-.343l-3.78.725 1.609.548 2.682-.767zm-1.03-1.354c-.064-.146-.11-.293-.16-.443l-7.557.443 1.528.75 6.189-.75zM58.95 84.951c2.493.4 7.267 1.025 13.114 1.156 5.836.15 12.696-.198 19.179-1.182 6.483-.956 12.56-2.561 16.874-4.293 4.348-1.665 6.78-3.693 6.768-3.701.024.012-2.51 2.358-7.115 4.371-4.559 2.091-10.995 4.096-17.772 5.391-6.77 1.332-13.87 1.94-19.647 1.976-5.775.068-10.262-.461-11.834-.712-5.433-.823-9.38-2.275-11.79-3.673-2.431-1.409-3.241-2.682-2.988-2.929.27-.294 1.48.3 3.932 1.071 2.455.782 6.192 1.757 11.28 2.525z"/><path fill="#FFF" d="M162.752 43.242l-.926.12-.593.057c-1.113.098-2.793.243-4.276 1.203-1.47.953-3.155 2.945-4.333 4.477-12.768 2.172-19.769 9.86-24.4 14.953l-2.904 3.443.486-.153c8.702-8.159 16.462-12.522 23.728-13.338l.108-.012.968-1.283 2.036-2.713c.837-.767 1.996-1.038 3.702-1.236l2.976-.193 3.523-.25c2.012-.275 3.74-.746 6.113-4.057l3.23-4.431-.379-.334c-2.964 2.984-6.201 3.39-9.06 3.747zm.061.506c2.476-.309 5.223-.756 7.874-2.715l-2.133 2.926c-2.26 3.154-3.818 3.586-5.774 3.85 0 .003-3.477.248-3.477.248l-3.012.198c-1.272.146-2.197.42-3.01.832 1.132-1.449 2.635-3.182 3.95-4.034 1.375-.894 2.98-1.032 4.044-1.126l.619-.062.92-.117zm-10.581 5.964c-.229.3-2.021 2.687-2.021 2.687l-.844 1.12c-6.208.726-12.761 4.01-19.918 9.949 4.522-4.936 11.225-11.632 22.783-13.756zm9.66-5.846h.005-.004z"/><path fill="#9B9B9B" d="M150.808 57.485l-2.363 3.239c-.445.96-1.135.917-1.861.872-7.841-.063-13.318.531-22.844 7.56l1.902-1.991c9.234-6.858 14.198-9.58 25.166-9.68z"/><path fill="url(#c)" d="M2.436 28.179c9.292-8.712 17.05-12.637 23.87-13.402.604-.812 2.688-3.532 3.32-4.438-15.55 2.58-22.424 13.273-27.19 17.84z" transform="translate(123.2 38.975)"/><path fill="#4A4A4A" d="M125.104 67.705c5.453-4.086 10.02-8.34 21.393-9.912.567-.652 2.221-2.863 3-4.042-10.368 1.433-17.15 7.315-23.384 12.904-.184.18-.825.882-1.01 1.05z"/><path fill="#FFF" d="M147.432 59.784c-1.357-.812-1.826-.47-1.526-1.296.223-.626 3.136-1.873 5.262-1.142 0 0-1.885 2.221-2.929 3.751.1-.357.345-.622-.807-1.313z"/><path fill="#4A4A4A" d="M152.087 50.214l-2.97 4.042c.648-.588 2.605-.878 4.726-.933l.297.006c.088-.006.18 0 .27-.006.299-.008.617-.022.947-.03 3.008-.12 7.184-.551 9.622-3.438l3.654-5.134.437-.61c-3.173 4.246-10.413 3.879-12.662 4.184-2.127.29-3.469.828-4.32 1.919z"/><path fill="#9B9B9B" d="M158.171 52.786c-2.281.325-4.89.421-5.639.46-1.278.057-2.978.472-3.448 1.05-1.433 1.81-2.805 3.498-3.177 4.193.876-.822 3.756-.733 7.252-.896 3.492-.162 7.03-1.697 9.82-4.929l2.12-2.976c-1.42 1.85-3.92 2.672-6.928 3.098z"/><path fill="url(#d)" d="M33.893 5.862c-1.746 1.131-3.847 3.815-4.88 5.228.96-1.044 2.235-1.341 4.106-1.557 1.87-.219 4.573-.181 6.494-.445 1.845-.25 3.56-.626 5.943-3.952L48.788.702c-3.35 3.372-7.008 3.512-10.129 3.936-.929.127-3.024.093-4.766 1.224z" transform="translate(123.2 38.975)"/><path d="M24.62 60.017v-3.39h6.287v-1.782H24.62V51.76h6.627v-1.782H19.96v11.841h11.652v-1.801zm13.81 1.801v-10.06h2.738c.833 0 1.603.064 2.307.541.51.37.832.896.832 1.549 0 .544-.19 1.105-.896 1.56-.92.608-2.521.692-3.526.569l-.577-.07 4.64 5.911h5.385l-4.404-4.933c.789-.088 2.054-.407 2.821-.908.919-.633 1.389-1.567 1.389-2.438 0-.976-.516-2.037-1.687-2.735-1.392-.802-3.292-.826-5.045-.826H33.75v11.84h4.68zm37.623-6.779v-3.28h6.798v-1.782H71.396v11.841h4.657v-4.997h6.285v-1.782zm8.487-5.062v11.841h11.546v-1.801h-6.863v-10.04zm45.512 0h-14.727v1.782h5.024v10.06h4.682v-10.06h5.02zm-24.645-.345c-2.18 0-5.238.501-7.29 1.995-1.629 1.173-2.395 2.85-2.395 4.28 0 1.414.767 3.088 2.394 4.261 2.053 1.474 5.11 1.975 7.29 1.975 2.179 0 5.258-.501 7.309-1.975 1.627-1.173 2.376-2.847 2.376-4.261 0-1.43-.75-3.107-2.376-4.28-2.05-1.494-5.13-1.973-7.308-1.995zm0 11.078c-1.156 0-2.524-.26-3.532-1.544-.832-1.041-.981-2.239-.981-3.26 0-1.061.149-2.237.981-3.278 1.008-1.307 2.376-1.565 3.532-1.565 1.172 0 2.524.258 3.543 1.565.837 1.041.988 2.217.988 3.278 0 1.021-.151 2.219-.988 3.26-1.02 1.284-2.37 1.544-3.543 1.544zm-45.31-11.078c-2.179 0-5.235.501-7.286 1.995-1.628 1.173-2.398 2.85-2.398 4.28 0 1.414.77 3.088 2.398 4.261 2.051 1.474 5.108 1.975 7.286 1.975s5.26-.501 7.313-1.975c1.622-1.173 2.373-2.847 2.373-4.261 0-1.43-.751-3.107-2.373-4.28-2.054-1.494-5.135-1.973-7.313-1.995zm0 11.078c-1.154 0-2.524-.26-3.527-1.544-.833-1.041-.984-2.239-.984-3.26 0-1.061.151-2.237.984-3.278 1.003-1.307 2.373-1.565 3.527-1.565 1.173 0 2.523.258 3.548 1.565.835 1.041.984 2.217.984 3.278 0 1.021-.15 2.219-.984 3.26-1.025 1.284-2.375 1.544-3.548 1.544zM3.543 61.818l1.84-3.437h6.479l1.986 3.437h5.236L11.99 49.977H7.648L1.214 61.818h2.329zm2.693-5.042l2.203-4.126h.065l2.392 4.126h-4.66zM50.253 71.307l-1.038 3.888c-.128.156-.327.286-.508.383-.28.154-.557.236-.812.236-.254 0-.48-.103-.583-.262-.075-.13-.15-.333-.05-.696l.939-3.55h-.964l-.91 3.422c-.077.312-.204.85.073 1.263.155.232.486.49 1.165.49.281 0 .561-.05.917-.205.226-.134.477-.286.683-.44l-.151.542h.859l1.349-5.071h-.97zm6.168.586a1.79 1.79 0 0 0-.56-.489c-.323-.175-.682-.205-.99-.205-.328 0-.735.03-1.188.31-.33.234-.735.592-.884 1.186-.135.436-.08.77.073.978.176.233.48.359.738.436l.479.158c.25.052.506.052.656.253a.548.548 0 0 1 .104.492 1.052 1.052 0 0 1-.355.488c-.176.157-.482.289-.912.289-.278 0-.507-.058-.734-.187-.201-.152-.356-.282-.433-.407l-.636.594c.458.61 1.02.692 1.574.692.377 0 1.141-.05 1.776-.54.352-.308.608-.699.711-1.032.05-.261.1-.642-.025-.878-.18-.36-.585-.513-.814-.567l-.355-.104c-.453-.104-.657-.153-.76-.283-.099-.073-.178-.23-.099-.539a1.12 1.12 0 0 1 .35-.49c.254-.156.488-.18.663-.18.227 0 .43.054.609.18.152.102.276.234.379.363l.633-.518zm5.199 0a1.368 1.368 0 0 0-.556-.489c-.303-.175-.662-.205-.964-.205-.349 0-.734.03-1.19.31-.331.234-.737.592-.914 1.186-.097.436-.05.77.102.978.177.233.51.359.735.436l.455.158c.254.052.51.052.685.253.077.106.152.236.077.492a1.216 1.216 0 0 1-.331.488c-.178.157-.48.289-.912.289a1.58 1.58 0 0 1-.76-.187 2.207 2.207 0 0 1-.431-.407l-.634.594c.487.61 1.042.692 1.597.692.383 0 1.14-.05 1.776-.54.354-.308.609-.699.685-1.032.076-.261.1-.642-.026-.878-.152-.36-.559-.513-.809-.567l-.358-.104c-.433-.104-.63-.153-.736-.283-.098-.073-.173-.23-.098-.539.05-.127.126-.336.354-.49.23-.156.481-.18.632-.18.257 0 .457.054.636.18.154.102.278.234.38.363l.605-.518zm1.86-.586l-.18.666h.582l-1.16 4.405h.959l1.342-5.071H63.48zm.609-1.675c-.081.358.126.641.459.641.353 0 .68-.284.781-.64.1-.34-.102-.62-.457-.62-.324 0-.68.28-.783.62zm8.807 6.746l1.067-3.993c.334-.285.84-.516 1.294-.516.33 0 .51.128.583.281.153.236.077.619.024.775l-.912 3.453h.965l.912-3.374c.104-.415.151-.904-.076-1.315-.204-.333-.58-.49-1.116-.49-.326 0-.885.078-1.496.49l.103-.383h-1.55l-.174.666h.582l-1.165 4.405h.959zm-31.708-7.314l-1.95 7.314h1.087l.843-3.216h.73l1.016 3.216h1.315l-1.165-3.272c.535-.056 1.245-.31 1.674-.645.478-.36.839-.876.96-1.417.154-.518.082-1.055-.22-1.412-.409-.518-1.22-.568-1.805-.568h-2.485zm1.803 3.266h-1.597l.635-2.418h1.446c.153 0 .63 0 .886.258.15.155.278.412.173.824-.1.386-.305.696-.606.954a1.85 1.85 0 0 1-.937.382zm25.213 1.085c-1.013.104-1.852.515-2.129 1.574-.026.124-.051.23-.051.332v.18c.025.568.404.981 1.241.981.302 0 .607-.05.939-.185.028 0 .052-.02.1-.047.33-.155.58-.414.66-.49h.05l-.173.618h.86l.886-3.272c.13-.516.252-1.032-.027-1.416-.23-.361-.81-.49-1.263-.49a4.28 4.28 0 0 0-1.094.129c-.883.23-1.217.772-1.243 1.26l.89.053c.072-.256.177-.439.353-.567.205-.152.509-.206.889-.206.205 0 .455.024.556.206.155.182.102.439.053.673l-.18.642h-.71c-.204 0-.428 0-.607.025zm0 2.317a1.27 1.27 0 0 1-.458.081c-.199 0-.454-.023-.605-.235-.126-.182-.154-.36-.076-.619.05-.203.15-.411.403-.616a1.51 1.51 0 0 1 .736-.281c.125-.03.278-.054.46-.054h.71l-.281 1.079a2.01 2.01 0 0 1-.485.465c-.15.082-.279.158-.404.18zm23.153-4.425l-.176.666h.583l-1.17 4.405h.966l1.342-5.071h-1.545zm.892-1.675c-.08.358.123.641.456.641.325 0 .681-.284.782-.64.104-.34-.1-.62-.457-.62-.325 0-.688.28-.781.62zm2.784 1.675l-1.341 5.07h.964l.76-2.912c.126-.334.25-.668.432-.926.303-.49.654-.566.862-.566.126 0 .275.024.379.128.071.08.101.229.101.412l.862-.257c.174-.513 0-.8-.302-.95a1.147 1.147 0 0 0-.51-.108c-.558 0-1.112.31-1.497.85l.202-.742h-.912zm5.329-2.347l-1.595 6.029c-.124.46-.355 1.389.788 1.389h.556l.176-.668h-.275c-.48 0-.357-.416-.334-.515l1.65-6.235h-.966zm2.608 2.347l-.172.666h.585l-1.196 4.405h.989l1.345-5.071h-1.552zm.888-1.675c-.078.358.127.641.457.641.356 0 .686-.284.786-.64.076-.34-.129-.62-.454-.62-.357 0-.685.28-.789.62zm2.654 6.746l1.038-3.993c.355-.285.863-.516 1.316-.516.33 0 .512.128.585.281.177.236.051.619.026.775l-.91 3.453h.96l.912-3.374c.102-.415.153-.904-.076-1.315-.198-.333-.583-.49-1.112-.49-.357 0-.864.078-1.496.49l.1-.383h-1.545l-.18.666h.583l-1.163 4.406h.962zm14.882-4.485c-.2-.308-.453-.461-.534-.489-.329-.175-.653-.205-.96-.205-.36 0-.736.03-1.19.31-.356.234-.762.592-.913 1.186-.133.436-.052.77.098.978.154.233.483.359.712.436l.482.158c.25.052.51.052.653.253.107.106.158.236.107.492a1.017 1.017 0 0 1-.355.488c-.155.157-.457.289-.912.289-.286 0-.486-.058-.74-.187-.2-.152-.35-.282-.427-.407l-.634.594c.455.61 1.016.692 1.573.692.404 0 1.14-.05 1.773-.54.358-.308.605-.699.71-1.032.077-.261.104-.642-.02-.878-.156-.36-.59-.513-.813-.567l-.359-.104c-.425-.104-.632-.153-.758-.283-.08-.073-.177-.23-.102-.539.05-.127.122-.336.356-.49.25-.156.503-.18.659-.18.252 0 .427.054.629.18.13.102.254.234.357.363l.608-.518zm-38.592 4.485h1.09l1.09-1.78h2.762l.128 1.78h1.242l-.682-7.314h-.889l-4.74 7.314zm2.688-2.627l1.95-3.117h.025l.232 3.117H85.49zm27.418.311h3.011l.08-.336c.202-.676.402-1.369.052-1.933-.305-.486-.913-.594-1.346-.594-.642 0-1.258.233-1.748.67-.662.592-.934 1.388-1.088 2.061-.152.542-.307 1.364.098 1.959.38.51 1.069.592 1.547.592.389 0 .747-.056 1.12-.186a4.82 4.82 0 0 0 .679-.305l-.148-.594a3.105 3.105 0 0 1-.662.237c-.237.044-.46.097-.712.097-.377 0-.71-.13-.883-.357-.282-.335-.153-.855-.075-1.107l.075-.204zm.15-.673l.05-.227c.105-.263.23-.674.556-.96a1.24 1.24 0 0 1 .84-.333c.255 0 .504.078.634.232.225.311.123.748.028 1.083l-.056.206h-2.052z" fill="#4A4A4A"/></g></g><path d="M0 0h215v150H0z"/></g></svg>