<svg width="111" height="112" viewBox="0 0 111 112" xmlns="http://www.w3.org/2000/svg"><title>0C261018-3213-440D-AEB0-873A5E8D154C</title><g fill-rule="nonzero" fill="#909090"><path d="M29.524 41.085h-.179a4.264 4.264 0 0 0-4.256 4.255v18.523a4.265 4.265 0 0 0 4.256 4.254h.179a4.265 4.265 0 0 0 4.255-4.254V45.34c0-2.336-1.92-4.255-4.255-4.255zM65.331 24.036l3.319-5.13a.703.703 0 0 0-.207-.968.673.673 0 0 0-.968.21l-3.451 5.294c-2.572-1.057-5.463-1.649-8.498-1.649-3.048 0-5.932.592-8.51 1.649l-3.435-5.294a.685.685 0 0 0-.978-.21.7.7 0 0 0-.213.968l3.317 5.13c-5.979 2.932-10.028 8.465-10.028 14.804 0 .387.029.771.062 1.16h39.56c.025-.389.055-.773.055-1.16 0-6.339-4.043-11.873-10.025-14.804zM46.35 33.202a1.903 1.903 0 0 1-1.906-1.905c0-1.06.854-1.889 1.906-1.889 1.058 0 1.905.829 1.905 1.889a1.903 1.903 0 0 1-1.905 1.905zm18.341 0a1.898 1.898 0 0 1-1.903-1.905c0-1.06.848-1.889 1.903-1.889a1.88 1.88 0 0 1 1.904 1.889 1.896 1.896 0 0 1-1.904 1.905zM81.694 41.085h-.179a4.263 4.263 0 0 0-4.254 4.255v18.523c0 2.334 1.919 4.254 4.254 4.254h.179a4.265 4.265 0 0 0 4.256-4.254V45.34a4.272 4.272 0 0 0-4.256-4.255z"/><path d="M55.253 111.152C24.842 111.152.101 86.411.101 56S24.842.847 55.253.847C69.986.847 83.837 6.583 94.254 17c10.417 10.417 16.153 24.267 16.153 39 0 30.411-24.742 55.152-55.154 55.152zm0-109.304C25.393 1.848 1.101 26.141 1.101 56s24.292 54.152 54.152 54.152S109.407 85.86 109.407 56c0-14.465-5.633-28.065-15.86-38.292C83.318 7.48 69.719 1.847 55.253 1.848z"/><path d="M53.627 54.269h-.763v5.437h.584c.797 0 1.381-.23 1.752-.693.372-.463.558-1.17.558-2.121 0-.89-.176-1.549-.528-1.978-.351-.431-.886-.645-1.603-.645z"/><path d="M35.816 41.771v29.23a3.905 3.905 0 0 0 3.915 3.899h4.178v10.01a4.256 4.256 0 0 0 4.259 4.255h.175A4.262 4.262 0 0 0 52.6 84.91V74.9h5.849v10.01a4.261 4.261 0 0 0 4.25 4.255h.181a4.261 4.261 0 0 0 4.252-4.255V74.9h4.183c2.141 0 3.91-1.741 3.91-3.899v-29.23H35.816zm9.092 13.474c.197.15.731.425 1.604.823.836.376 1.417.78 1.741 1.212.326.432.488.975.488 1.629 0 .603-.152 1.137-.457 1.604-.306.467-.746.83-1.321 1.089s-1.251.388-2.025.388c-.646 0-1.188-.045-1.625-.136a6.036 6.036 0 0 1-1.368-.475v-2.337c.5.257 1.02.457 1.56.602a5.8 5.8 0 0 0 1.487.215c.39 0 .675-.067.856-.201a.624.624 0 0 0 .272-.521.574.574 0 0 0-.11-.349 1.25 1.25 0 0 0-.352-.302c-.161-.103-.592-.311-1.291-.625-.633-.287-1.107-.566-1.424-.836a2.57 2.57 0 0 1-.704-.929c-.152-.35-.229-.764-.229-1.241 0-.894.325-1.591.976-2.091.65-.5 1.545-.75 2.682-.75 1.005 0 2.029.232 3.073.697l-.803 2.025c-.907-.416-1.69-.624-2.35-.624-.341 0-.589.06-.744.18a.544.544 0 0 0-.232.444c0 .188.099.358.296.509zm12.234 5.297c-.892.876-2.146 1.313-3.761 1.313h-3.139v-9.704H53.6c1.558 0 2.761.398 3.607 1.195.848.796 1.271 1.947 1.271 3.452.001 1.62-.445 2.867-1.336 3.744zm11.368 1.313h-2.961l-1.918-3.71-.776.464v3.246h-2.636v-9.704h2.636v4.215c.133-.261.399-.675.803-1.241l2.037-2.974h2.868l-3.061 4.348 3.008 5.356z"/></g></svg>