<svg width="112" height="112" viewBox="0 0 112 112" xmlns="http://www.w3.org/2000/svg"><title>2A66362D-70EA-4C83-850E-63861B29E732</title><g fill-rule="nonzero" fill="none"><path d="M55.998 111.152C25.587 111.152.846 86.411.846 56.001.846 25.59 25.587.848 55.998.848c30.414.001 55.157 24.743 55.157 55.153s-24.744 55.151-55.157 55.151zm0-109.304c-29.86 0-54.152 24.293-54.152 54.153 0 29.858 24.292 54.151 54.152 54.151 29.862 0 54.157-24.293 54.157-54.151-.001-29.859-24.296-54.152-54.157-54.153z" fill="#909090"/><path fill="#909090" d="M56.044 40.442l-.043.102v17.269h7.346z"/><path d="M56.001 12.512V22.53l.043-.095L80.958 77.86h-9.322l-5.024-12.4h-10.61v34.03l34.702-19.002 6.246-53.536-40.949-14.44zm17.917 24.341c0 3.299-1.621 4.312-3.758 4.312-.591 0-1.31-.128-1.714-.293l.237-1.31c.334.13.813.239 1.348.239 1.436 0 2.285-.644 2.285-3.076v-8.182h1.602v8.31zm5.215 4.293c-1.2 0-2.506-.35-3.17-.792l.404-1.345a5.7 5.7 0 0 0 2.875.81c1.64 0 2.6-.866 2.6-2.119 0-1.161-.664-1.825-2.343-2.47-2.025-.719-3.279-1.768-3.279-3.519 0-1.935 1.604-3.373 4.018-3.373 1.271 0 2.191.295 2.747.608l-.443 1.309a4.931 4.931 0 0 0-2.358-.59c-1.694 0-2.34 1.014-2.34 1.861 0 1.161.755 1.732 2.468 2.396 2.103.81 3.171 1.824 3.171 3.648-.002 1.917-1.42 3.576-4.35 3.576zM89.47 36.06h-4.978v-.682l1.162-1.086c1.53-1.383 2.32-2.248 2.32-3.188 0-.701-.439-1.29-1.399-1.29-.645 0-1.197.332-1.547.571l-.388-.83c.497-.424 1.328-.773 2.249-.773 1.73 0 2.449 1.086 2.449 2.083 0 1.382-1.05 2.396-2.449 3.63l-.571.517v.037h3.151v1.011h.001z" fill="#909090"/><path fill="#909090" opacity=".8" d="M55.957 40.442l.043.102v17.269h-7.346z"/><path fill="#999" opacity=".8" d="M56 65.459H45.39l-5.024 12.4h-9.323L56 22.532v-10.02L15.051 26.95l6.245 53.536L56 99.488z"/></g></svg>