<svg width="112" height="112" viewBox="0 0 112 112" xmlns="http://www.w3.org/2000/svg"><title>F1960ACD-EEB9-4B3D-B688-4C1AC939A700</title><g fill-rule="nonzero" fill="#909090"><path d="M46.182 88.725V63.983L31.254 78.914l-4.665-4.668c6.049-6.052 12.135-12.14 18.223-18.228L26.553 37.764l4.642-4.644 14.979 14.979V23.287c.082-.005.145-.014.207-.014.962 0 1.924-.004 2.886.005a.481.481 0 0 1 .305.124c4.767 4.758 9.528 9.52 14.29 14.282a7851.04 7851.04 0 0 0 4.084 4.08c.056.054.128.091.207.148L54.049 55.958l14.124 14.076c-.247.236-.453.428-.65.625a37648.96 37648.96 0 0 0-17.872 17.875.603.603 0 0 1-.479.195c-.91-.011-1.819-.004-2.729-.004h-.261zm12.634-18.672l-6.069-6.041v12.16c2.048-2.065 4.066-4.098 6.069-6.119zm-6.073-34.179v12.175l6.069-6.109c-1.999-2.001-4.032-4.03-6.069-6.066zM76.541 69.169c4.256-8.763 4.259-17.541-.012-26.333l4.125-4.109c2.636 4.347 4.232 9.054 4.666 14.136.621 7.28-1.073 14.012-4.865 20.222-1.314-1.317-2.618-2.62-3.914-3.916z"/><path d="M70.934 63.607c-2.539-2.537-5.06-5.058-7.563-7.563l7.588-7.628c1.878 5.088 1.872 10.137-.025 15.191z"/><path d="M110.152 55.999c0-29.91-24.242-54.153-54.153-54.152-29.907 0-54.152 24.244-54.152 54.152 0 29.91 24.244 54.153 54.152 54.153 29.91 0 54.153-24.242 54.153-54.153zm1 0c0 30.463-24.69 55.153-55.153 55.153-30.46 0-55.152-24.691-55.152-55.153C.847 25.539 25.54.847 55.999.847c30.463-.001 55.153 24.69 55.153 55.152z"/></g></svg>