<svg width="111" height="111" viewBox="0 0 111 111" xmlns="http://www.w3.org/2000/svg"><title>02620746-1186-488D-8E2A-F2AAA92EB2D0</title><g fill-rule="nonzero" fill="#909090"><path d="M56.01 110.653C25.55 110.653.856 85.96.856 55.499.856 25.039 25.549.345 56.01.345c30.46 0 55.154 24.693 55.154 55.154 0 30.46-24.693 55.154-55.154 55.154zm0-1c29.908 0 54.154-24.246 54.154-54.154 0-29.908-24.246-54.154-54.154-54.154-29.908 0-54.154 24.246-54.154 54.154 0 29.908 24.246 54.154 54.154 54.154z"/><path d="M15.943 57.324l.07-.018c.037.063.084.119.112.186.758 1.689 1.513 3.387 2.271 5.08.73 1.629 1.46 3.262 2.199 4.889.31.681.811 1.148 1.562 1.31a4.583 4.583 0 0 0 1.902.008 2.038 2.038 0 0 0 1.389-.989 5.82 5.82 0 0 0 .317-.619l4.336-9.685c.029-.065.081-.122.123-.184.022.008.045.018.067.024V68.386c0 .303 0 .303.31.303.724 0 1.443.002 2.166 0 .318 0 .318 0 .318-.319l-.001-10.914c0-.193-.001-.394-.021-.586-.072-.672-.398-1.175-1.059-1.377a9.064 9.064 0 0 0-1.574-.353c-1.414-.161-2.428.435-2.999 1.717-1.42 3.185-2.833 6.367-4.248 9.552-.032.069-.07.137-.131.254-.062-.103-.103-.15-.127-.207-.664-1.539-1.324-3.076-1.987-4.615-.736-1.709-1.472-3.42-2.217-5.125-.371-.854-1.022-1.379-1.942-1.543-.948-.168-1.854.021-2.727.387a1.348 1.348 0 0 0-.83 1.002 3.396 3.396 0 0 0-.076.688c-.006 3.729-.002 7.457-.009 11.186 0 .219.078.266.276.264.734-.012 1.473-.006 2.209-.006.308 0 .308 0 .308-.305V57.563c0-.084.008-.161.013-.239zm60.991-12.865c-.271.35-.527.654-.756.98a3.06 3.06 0 0 0-.332.637c-.369.943-.395 1.95-.529 2.938-.051.364-.146.422-.477.233-.381-.217-.574-.582-.748-.961a8.553 8.553 0 0 1-.721-2.683c-.117-1.11-.082-2.21.195-3.288.164-.63.396-1.242.611-1.857.225-.637.121-1.178-.404-1.625a2.697 2.697 0 0 1-.387-.438c-.68-.94-1.047-2.021-1.387-3.112-.324-1.047-.621-2.106-1.281-3.012a63.608 63.608 0 0 0-1.133-1.518c-.32-.419-.617-.851-.783-1.358-.189-.595.254-1.109.869-1.001.125.021.252.044.371.086 1.184.412 2.314.916 3.277 1.749.158.137.363.27.564.298.533.076 1.076.09 1.613.137.246.021.504.021.736.093.52.162 1.047.328 1.543.554 1.789.813 3.375 1.937 4.785 3.294 1.971 1.896 3.563 4.049 4.559 6.629.469 1.21 1.064 2.368 1.621 3.543.396.842.82 1.67 1.234 2.502.248.493.654.786 1.182.941.416.123.83.259 1.24.404.818.291 1.637.584 2.355 1.103.793.569 1.613 1.101 2.414 1.658.189.131.359.296.521.462.057.061.063.17.096.257-.084.021-.166.054-.252.056-.557.02-1.111.016-1.666.051-1.006.066-1.953.391-2.895.731a.782.782 0 0 0-.273.183c-.039.035-.064.133-.043.179.123.272.238.553.398.805.781 1.229 1.951 2.009 3.225 2.629 1.098.535 2.189 1.062 3.131 1.854.271.229.549.453.854.703-.137-.381-.289-.695-.568-.941a4.868 4.868 0 0 1-.521-.561 10.928 10.928 0 0 0-2.693-2.371 22.75 22.75 0 0 1-1.658-1.156c-.174-.131-.271-.357-.438-.587.26-.056.447-.091.637-.136.523-.121 1.045-.289 1.576-.358.836-.106 1.664-.228 2.467-.494.158-.053.182-.144.096-.246-.396-.471-.781-.954-1.213-1.389-.336-.339-.742-.61-1.111-.919a16.877 16.877 0 0 0-5.037-2.932c-.332-.123-.576-.312-.73-.621-.371-.746-.766-1.482-1.111-2.24a248.911 248.911 0 0 1-1.92-4.322c-.834-1.928-2.084-3.576-3.48-5.118-1.396-1.544-3.039-2.794-4.805-3.888-.639-.395-1.275-.788-2.002-1.018-1.039-.328-2.102-.484-3.189-.535a.915.915 0 0 1-.518-.219c-.682-.599-1.459-1.029-2.277-1.397-.66-.297-1.346-.517-2.08-.531-1.193-.022-2.006.909-1.836 2.085.076.521.305.977.604 1.393.467.645.973 1.262 1.426 1.916.275.398.527.826.707 1.273.258.646.426 1.329.658 1.986.465 1.318.955 2.628 1.965 3.658.146.148.205.332.063.55-.094.14-.129.319-.172.483-.09.344-.148.691-.248 1.029-.297 1.023-.457 2.066-.424 3.135.016.502.063 1.004.133 1.5.152 1.092.492 2.12 1.119 3.037.309.448.65.87 1.189 1.063.66.237 1.369-.093 1.584-.755.078-.241.117-.496.16-.746.096-.557.18-1.111.275-1.665.014-.065.066-.122.104-.185.045.053.104.1.135.158.105.198.209.398.301.605.424.967.979 1.848 1.752 2.572.887.832 1.793 1.644 2.693 2.461.09.078.197.137.297.205-2.444-2.436-3.98-5.421-5.237-8.615zM59.719 55.361v.024c-1.352 0-2.705-.005-4.06.003-.897.006-1.76.188-2.564.602-.94.486-1.473 1.232-1.474 2.316-.001.631.001 1.263-.002 1.895-.003.385.113.736.361 1.021.226.258.476.508.759.692.9.595 1.929.847 2.985.894 1.125.05 2.256.005 3.385.026.438.008.885.06 1.314.14.736.137 1.084.59 1.084 1.34 0 .422.021.843-.01 1.263a1.246 1.246 0 0 1-.199.58c-.209.307-.52.506-.891.567a6.794 6.794 0 0 1-1.07.121c-1.174.014-2.346.006-3.521.006h-3.944c-.295 0-.296 0-.297.303 0 .437.006.871-.003 1.31-.005.174.052.234.231.234 2.78-.007 5.563.006 8.344-.013a5.633 5.633 0 0 0 2.971-.869c.801-.502 1.264-1.198 1.229-2.183a16.29 16.29 0 0 1 .002-1.624c.061-.905-.367-1.519-1.096-1.976-.969-.606-2.047-.856-3.174-.887-1.217-.029-2.436-.003-3.652-.009a5.914 5.914 0 0 1-.808-.06c-.651-.088-1.093-.483-1.164-1.131a9.411 9.411 0 0 1-.026-1.662c.038-.559.291-.813.853-.928.364-.074.742-.12 1.114-.121 2.603-.011 5.202-.008 7.804-.004.189.002.268-.041.26-.248a21.013 21.013 0 0 1 0-1.375c.008-.201-.059-.255-.256-.253-1.493.01-2.989.006-4.485.006zm22.76 0c-.006.088-.012.146-.012.203v5.301c.002 1.549-.01 3.096.014 4.646.016 1.239.67 2.063 1.775 2.562.969.437 2 .6 3.047.608 2.557.022 5.111.01 7.666.017.182 0 .236-.063.234-.236-.012-.428-.004-.855-.004-1.285 0-.322 0-.324-.32-.324-2.422 0-4.842.006-7.262-.004a6.52 6.52 0 0 1-1.229-.133c-.521-.105-.939-.383-1.063-.945-.049-.232-.045-.479-.045-.719-.004-3.165-.002-6.329-.002-9.493 0-.06-.012-.115-.016-.181-.059-.006-.102-.014-.145-.014-.869-.003-1.74-.003-2.638-.003zm-8.125-22.429c.252.309.51.574.701.88.199.312.336.661.502.997.432-.284.564-.831.303-1.318-.315-.585-.76-.803-1.506-.559zM35.654 72.761l.001-1.578c.002-.299.002-.299.294-.299 2.871 0 5.742.01 8.613-.011.396-.002.804-.104 1.18-.237.486-.173.724-.562.703-1.091a8.98 8.98 0 0 1-.004-.696c.009-.187-.061-.252-.247-.25-.782.008-1.563.002-2.347.002-1.263 0-2.523.017-3.788-.006-.981-.019-1.94-.193-2.837-.621-.51-.24-.96-.562-1.29-1.028a1.776 1.776 0 0 1-.347-1.052c.004-2.127.008-4.254.014-6.381 0-.017.008-.027.02-.062.059-.002.124-.01.188-.01.782-.002 1.564.006 2.347-.008.197-.004.237.063.237.24-.006 1.979.012 3.953-.012 5.932-.007.744.406 1.104 1 1.24.275.063.564.092.849.094 1.97.008 3.938.002 5.907.002.332 0 .325 0 .324-.318-.002-2.33 0-4.66-.004-6.99 0-.17.057-.221.223-.219.789.006 1.577.008 2.367-.002.184-.002.224.064.224.236-.005 3.328-.006 6.66-.006 9.988.001 1.273-.705 2.041-1.8 2.527a6.187 6.187 0 0 1-1.858.508c-.086.012-.169.059-.253.088-3.233.002-6.466.002-9.698.002z"/><path d="M15.943 57.324c-.005.078-.013.154-.013.232V68.38c0 .307 0 .307-.308.307-.736 0-1.475-.006-2.209.004-.198.003-.276-.043-.276-.262.007-3.729.003-7.455.009-11.186 0-.229.029-.465.076-.688a1.35 1.35 0 0 1 .83-1.002c.872-.364 1.777-.555 2.727-.387.92.164 1.571.688 1.942 1.543.745 1.705 1.479 3.416 2.217 5.125.663 1.539 1.323 3.076 1.987 4.615.024.055.065.104.127.207.061-.117.099-.185.131-.255 1.415-3.184 2.828-6.366 4.248-9.551.571-1.283 1.585-1.877 2.999-1.717a8.758 8.758 0 0 1 1.574.353c.659.201.985.704 1.059 1.377.021.192.021.391.021.586l.001 10.914c0 .319 0 .319-.318.319-.723.002-1.442 0-2.166 0-.31 0-.31 0-.31-.304V57.577v-.258a.607.607 0 0 0-.067-.025c-.042.062-.094.117-.123.185l-4.336 9.685a6.22 6.22 0 0 1-.317.619c-.316.53-.78.864-1.389.989a4.6 4.6 0 0 1-1.902-.008c-.751-.16-1.252-.629-1.562-1.31-.739-1.627-1.469-3.26-2.199-4.891-.758-1.691-1.513-3.389-2.271-5.079-.028-.065-.075-.122-.112-.185-.025.014-.047.019-.07.025zM81.607 70.686h-.938c-.693 0-1.385.009-2.074-.006a.647.647 0 0 1-.375-.146 153.325 153.325 0 0 1-1.975-1.783.491.491 0 0 0-.406-.143c-1.836.193-3.678.152-5.518.119a5.431 5.431 0 0 1-2.723-.783c-.855-.518-1.311-1.287-1.313-2.295-.01-2.328.016-4.658-.014-6.988-.021-1.545.875-2.389 2.002-2.812a6.933 6.933 0 0 1 2.445-.449c1.9-.002 3.803-.019 5.703.019.984.018 1.938.242 2.797.752.871.517 1.336 1.287 1.338 2.304.012 2.396.012 4.793 0 7.19-.002 1.09-.465 1.906-1.484 2.367-.229.103-.227.133-.035.305.807.73 1.615 1.463 2.422 2.195.039.031.072.072.148.154zm-9.82-5.985c1.094 0 2.117-.004 3.137.008.096 0 .207.08.285.15.592.531 1.182 1.068 1.764 1.611.133.119.232.127.371.021.389-.299.598-.676.598-1.178-.006-2.164-.008-4.326 0-6.49.002-.643-.309-1.063-.863-1.328-.434-.207-.898-.246-1.363-.248-1.377-.006-2.752-.01-4.127.004a4.835 4.835 0 0 0-1.023.125c-.855.197-1.234.699-1.234 1.572 0 2.064 0 4.133.002 6.197 0 .135.002.271.027.404.168.836.857 1.256 1.654 1.299.945.053 1.895.029 2.84.039.068 0 .141-.021.207-.029.01-.021.02-.041.025-.063-.751-.68-1.501-1.362-2.3-2.094zM76.934 44.459c1.258 3.193 2.793 6.178 5.238 8.617-.1-.068-.207-.127-.297-.205-.902-.817-1.811-1.629-2.695-2.461-.77-.726-1.326-1.605-1.752-2.572a8.285 8.285 0 0 0-.299-.605c-.033-.061-.09-.105-.135-.158-.037.063-.094.118-.105.185-.096.554-.18 1.108-.273 1.665-.043.25-.082.505-.162.746-.215.662-.922.992-1.582.755-.539-.194-.885-.616-1.189-1.063-.627-.917-.967-1.945-1.119-3.037-.07-.496-.117-.998-.135-1.5-.031-1.066.127-2.109.424-3.135.1-.338.158-.688.248-1.029.043-.164.08-.345.174-.483.143-.218.084-.4-.063-.55-1.01-1.03-1.5-2.34-1.967-3.658-.23-.657-.398-1.34-.656-1.986a6.644 6.644 0 0 0-.709-1.273c-.451-.653-.957-1.271-1.424-1.916-.301-.416-.527-.871-.604-1.393-.172-1.176.641-2.107 1.836-2.085.732.015 1.418.234 2.078.531.82.368 1.6.799 2.277 1.397a.92.92 0 0 0 .52.219c1.086.051 2.146.206 3.188.535.727.23 1.363.623 2.002 1.019 1.764 1.094 3.406 2.344 4.803 3.888 1.396 1.543 2.646 3.19 3.482 5.118.627 1.447 1.266 2.89 1.92 4.322.346.758.738 1.495 1.111 2.241.152.31.398.498.73.621a16.82 16.82 0 0 1 5.037 2.931c.367.31.773.58 1.109.919.434.436.814.918 1.213 1.389.088.104.063.193-.094.246-.805.268-1.633.387-2.467.494-.533.068-1.053.236-1.578.357-.188.045-.377.082-.637.137.166.229.266.457.439.587.535.405 1.086.799 1.656 1.155a10.908 10.908 0 0 1 2.695 2.371c.16.197.33.394.521.562.279.246.434.563.568.94-.305-.25-.582-.473-.854-.702-.941-.794-2.035-1.318-3.131-1.854-1.273-.619-2.441-1.398-3.227-2.629-.152-.253-.27-.531-.393-.805-.021-.046.002-.145.041-.18a.885.885 0 0 1 .275-.182c.939-.342 1.887-.665 2.893-.73.557-.036 1.111-.032 1.668-.051.084-.004.168-.037.252-.057-.031-.087-.039-.195-.096-.257a3.673 3.673 0 0 0-.521-.462c-.803-.559-1.623-1.09-2.414-1.659-.721-.519-1.537-.812-2.357-1.103a23.29 23.29 0 0 0-1.24-.404c-.523-.155-.934-.448-1.18-.941-.414-.832-.838-1.66-1.234-2.502-.557-1.175-1.154-2.333-1.621-3.543-.996-2.58-2.588-4.732-4.559-6.629-1.412-1.357-2.998-2.48-4.785-3.294-.498-.226-1.023-.392-1.545-.554-.232-.072-.488-.072-.736-.093-.537-.047-1.08-.061-1.613-.137-.199-.028-.404-.161-.563-.298-.963-.833-2.096-1.337-3.277-1.749-.121-.042-.248-.064-.373-.086-.615-.108-1.061.406-.867 1.001.164.508.461.939.783 1.358.385.5.76 1.008 1.131 1.518.66.904.959 1.965 1.283 3.012.338 1.094.707 2.172 1.385 3.112.113.157.24.313.387.438.525.447.629.988.406 1.625-.215.615-.449 1.229-.611 1.857-.277 1.078-.314 2.178-.195 3.288.098.937.328 1.83.721 2.683.172.379.365.744.746.961.33.188.428.131.477-.233.135-.987.162-1.994.531-2.938.086-.222.195-.441.33-.637.226-.326.484-.631.756-.982zM59.719 55.361c1.496 0 2.992.004 4.488-.004.197-.002.262.053.256.254-.014.457-.016.916 0 1.373.006.209-.068.252-.262.25-2.6-.006-5.201-.009-7.803.003a5.88 5.88 0 0 0-1.114.12c-.562.113-.813.369-.853.928a9.734 9.734 0 0 0 .026 1.664c.072.646.511 1.043 1.164 1.131.268.037.537.058.809.058 1.219.008 2.438-.021 3.652.012 1.125.027 2.203.277 3.174.886.729.457 1.154 1.068 1.096 1.976a17.57 17.57 0 0 0-.004 1.623c.035.983-.428 1.682-1.229 2.182a5.575 5.575 0 0 1-2.969.869c-2.781.019-5.564.008-8.345.015-.181 0-.235-.063-.231-.236.009-.437.003-.873.003-1.309.001-.302.002-.302.297-.304h3.945c1.173 0 2.347.01 3.519-.004a7.183 7.183 0 0 0 1.072-.123c.369-.063.68-.263.889-.567a1.22 1.22 0 0 0 .201-.58c.031-.42.01-.842.01-1.264 0-.75-.35-1.203-1.084-1.34a8.106 8.106 0 0 0-1.314-.139c-1.129-.021-2.26.023-3.385-.024-1.059-.049-2.085-.299-2.985-.894a4.014 4.014 0 0 1-.758-.692 1.498 1.498 0 0 1-.363-1.021c.003-.633.001-1.264.002-1.896.001-1.084.532-1.83 1.474-2.314.807-.416 1.667-.597 2.564-.603 1.354-.007 2.707-.002 4.059-.002l-.001-.028zM82.479 55.361l2.645.001c.043 0 .086.007.145.013.006.064.018.123.018.182 0 3.165-.002 6.329 0 9.492 0 .238-.002.484.047.718.119.563.539.84 1.061.946.402.082.818.129 1.23.132 2.42.012 4.84.006 7.26.006.32 0 .32 0 .32.323.002.431-.006.857.004 1.285.004.174-.053.236-.232.235-2.555-.005-5.109.009-7.666-.017-1.049-.01-2.078-.174-3.049-.607-1.104-.498-1.76-1.32-1.775-2.563-.021-1.549-.012-3.096-.012-4.646-.002-1.768-.002-3.532-.002-5.3-.006-.053 0-.112.006-.2z"/><path d="M74.354 32.932c.746-.242 1.191-.023 1.506.559.264.487.129 1.034-.303 1.318-.166-.336-.303-.688-.502-.997-.194-.308-.45-.572-.701-.88z"/></g></svg>