<svg width="111" height="112" viewBox="0 0 111 112" xmlns="http://www.w3.org/2000/svg"><title>4324F364-97FF-4A2D-A8D8-F844A31A1E72</title><g fill-rule="nonzero" fill="#909090"><path d="M75.714 57.805c-2.056-10.339 7.767-16.418 7.767-16.418s-3.838-5.529-10.256-6.953c-6.427-1.427-9.648.346-12.859 1.692-3.217 1.331-4.811 1.331-4.811 1.331-4.656 0-8.035-4.905-16.869-2.68-6.099 1.554-12.504 8.57-13.664 16.963-1.157 8.396 1.35 19.097 6.156 27.396 4.828 8.303 9.729 11.437 13.204 11.514 3.497.095 6.976-2.489 11.173-3.116 4.185-.627 6.764 1.521 10.883 2.679 4.107 1.159 5.529.078 10.262-3.932 4.732-4.026 9.021-15.538 9.021-15.538s-7.955-2.585-10.007-12.938zM66.609 27.73c4.559-4.638 3.008-11.826 3.008-11.826s-6.389 1.128-10.684 5.574c-4.275 4.467-3.567 11.518-3.567 11.518s6.689-.632 11.243-5.266z"/><path d="M55.5 111.154C25.04 111.154.346 86.461.346 56 .346 25.54 25.039.846 55.5.846c30.46 0 55.154 24.693 55.154 55.154 0 30.46-24.693 55.154-55.154 55.154zm0-1c29.908 0 54.154-24.246 54.154-54.154 0-29.908-24.246-54.154-54.154-54.154C25.592 1.846 1.346 26.092 1.346 56c0 29.908 24.246 54.154 54.154 54.154z"/></g></svg>