<svg width="112" height="112" viewBox="0 0 112 112" xmlns="http://www.w3.org/2000/svg"><title>0AAA9932-CAB3-43F7-966B-3E953F6ACCD2</title><g fill-rule="nonzero" fill="#909090"><path d="M56 111.155C25.539 111.155.845 86.461.845 56 .845 25.539 25.539.845 56 .845c30.461 0 55.155 24.694 55.155 55.155 0 30.461-24.694 55.155-55.155 55.155zm0-1c29.909 0 54.155-24.246 54.155-54.155 0-29.909-24.246-54.155-54.155-54.155C26.091 1.845 1.845 26.091 1.845 56c0 29.909 24.246 54.155 54.155 54.155z"/><path d="M27.514 48.188c2.011-2.457 4.468-3.619 7.506-3.619 5.361 0 8.667 3.753 8.667 9.785 0 7.148-4.154 14.475-12.063 14.475-3.709 0-6.166-1.429-7.327-4.199L21.75 76.736h-5.049l6.702-31.586h4.78l-.669 3.038zm-1.921 11.169c0 3.396 2.1 5.539 5.405 5.539 4.289 0 7.596-4.513 7.596-10.364 0-3.574-1.52-5.942-5.317-5.942-5.451 0-7.684 6.21-7.684 10.767zM54.853 48.456c2.189-2.546 4.915-3.887 8.043-3.887 4.021 0 6.701 2.368 6.701 5.942 0 .894-.225 2.413-.537 3.842l-2.903 13.85H61.02l2.813-13.224c.356-1.787.401-2.1.401-3.083 0-2.145-1.385-3.172-3.528-3.172-4.334 0-6.612 3.708-7.417 7.461l-2.546 12.018h-5.004l6.746-31.81h5.003l-2.635 12.063zM80.449 48.188c2.011-2.457 4.468-3.619 7.506-3.619 5.361 0 8.667 3.753 8.667 9.785 0 7.148-4.154 14.475-12.063 14.475-3.709 0-6.166-1.429-7.326-4.199l-2.547 12.106h-5.05l6.702-31.585h4.78l-.669 3.037zm-1.922 11.169c0 3.396 2.101 5.539 5.406 5.539 4.289 0 7.596-4.513 7.596-10.364 0-3.574-1.521-5.942-5.317-5.942-5.45 0-7.685 6.21-7.685 10.767z"/></g></svg>