<svg width="111" height="112" viewBox="0 0 111 112" xmlns="http://www.w3.org/2000/svg"><title>0A8B5A4D-8C75-4258-8788-B4D47C3A4A38</title><g fill-rule="nonzero" fill="#909090"><path d="M55.152 111.155c-30.46 0-55.154-24.693-55.154-55.154C-.002 25.541 24.691.847 55.152.847c30.46 0 55.154 24.693 55.154 55.154 0 30.46-24.693 55.154-55.154 55.154zm0-1c29.908 0 54.154-24.246 54.154-54.154 0-29.908-24.246-54.154-54.154-54.154C25.244 1.847.998 26.093.998 56.001c0 29.908 24.246 54.154 54.154 54.154z"/><path d="M49.276 61.135c0 7.2-3.6 10.945-10.513 10.945-8.017 0-10.849-4.321-10.849-11.521v-1.295h5.712v1.871c0 3.506.912 6.049 4.945 6.049 4.512 0 4.704-3.265 4.704-6.863V37.084h6l.001 24.051zM74.955 47.165c-.385-4.272-3.217-6-7.439-6-4.08 0-6.529 1.776-6.529 4.752 0 3.264 2.113 3.457 8.688 5.185 5.81 1.488 12.337 2.88 12.337 10.226 0 7.729-6.863 10.704-13.585 10.704-8.112 0-14.401-3.841-14.401-12.097h5.904c0 5.28 3.984 7.344 8.834 7.344 4.607 0 7.344-2.016 7.344-5.375 0-3.553-2.928-4.178-7.969-5.475-7.248-1.872-12.865-3.072-12.865-10.033 0-6.097 4.944-9.985 12.625-9.985 6.961 0 12.481 3.12 12.771 10.753h-5.715v.001z"/></g></svg>