<svg id="Layer_1" xmlns="http://www.w3.org/2000/svg" viewBox="0 0 401 232"><style>.st0,.st1{fill-rule:evenodd;clip-rule:evenodd;fill:#555}.st1{stroke:#5e5e5e;stroke-miterlimit:10}.st2{fill:none}.st3,.st4,.st5{fill-rule:evenodd;clip-rule:evenodd;fill:#fff}.st4,.st5{fill:#4f4f4f}.st5{fill:#999}</style><path class="st0" d="M114.2 232s-18.2-.3-24.4-2.8C31.9 216-6.6 161.1.9 102.1 7.8 48.2 46.9 8.6 100.7.9c.7-.1 7.6-.9 7.6-.9h182s9.3.9 10.1 1c47.6 6.2 86.5 41.6 97.1 88.2.9 3.9 2.8 11.8 2.8 11.8s1.7 16 0 29c-1.9 8.1-1.4 5.6-1.7 7.4-8.4 45.7-42.7 81.5-87.9 91.8-13.5 3.1-26.4 2.8-26.4 2.8H114.2zm85.7-2.8v.2c28.2 0 56.3.1 84.5 0 72.7-.3 125.7-65.4 111.1-136.4C384.6 39.6 339.2 2.7 284 2.6c-55.8-.1-111.6 0-167.5 0-7.5 0-15 .4-22.4 1.9-63.6 13-102.6 73.3-88.8 137C15.9 190.2 59 227.3 108.9 229c30.3 1.1 60.7.2 91 .2z"/><path class="st1" d="M200.5 14.2c28 0 56-.2 84 0 46.9.4 86 30.3 98.2 74.8 16.2 59-22.6 118.8-83 127.7-5.4.8-11 1.1-16.4 1.1-55.2.1-110.3.1-165.5 0-47.9-.1-87.5-30.2-99.7-75.5-15.8-58.7 23.6-118.8 83.5-127 5.9-.8 12-1.1 17.9-1.1 27-.1 54 0 81 0zm171.9 87.6c-4.5-25.6-17.4-45.7-39-60.3-2.4-1.6-4.9-2.3-7.9-2.3-83.3.1-166.6.1-249.9 0-3.2 0-5.8.8-8.4 2.5-21.4 14.5-34.1 34.6-38.6 60"/><path class="st2" d="M200.5 18c26.9 0 53.9-.2 80.8 0 45.1.4 82.7 29.1 94.5 71.9 15.6 56.7-21.7 114.2-79.8 122.8-5.2.8-10.5 1.1-15.8 1.1-53.1.1-106.1.1-159.2 0-46.1-.1-84.2-29.1-95.9-72.6C9.9 84.8 47.8 27 105.3 19.1c5.7-.8 11.5-1 17.3-1 26-.1 51.9-.1 77.9-.1z"/><path class="st2" d="M202.7 16.8h2.4v2.4h-2.4z"/><circle class="st3" cx="203.9" cy="18" r="1.2"/><path class="st2" d="M209.4 16.9h2.4v2.4h-2.4z"/><circle class="st3" cx="210.6" cy="18.1" r="1.2"/><path class="st2" d="M216.2 16.9h2.4v2.4h-2.4z"/><circle class="st3" cx="217.4" cy="18.1" r="1.2"/><path class="st2" d="M222.9 19.3h2.4v-2.4h-2.4z"/><circle class="st3" cx="224.1" cy="18.1" r="1.2"/><path class="st2" d="M229.7 19.3h2.4v-2.4h-2.4z"/><circle class="st3" cx="230.9" cy="18.1" r="1.2"/><path class="st2" d="M236.4 19.3h2.4l.1-2.4h-2.4z"/><path class="st3" d="M238.9 18.1c0 .7-.5 1.2-1.2 1.2s-1.2-.5-1.2-1.2.5-1.2 1.2-1.2 1.2.5 1.2 1.2z"/><path class="st2" d="M243.2 19.3h2.4v-2.4h-2.4z"/><path class="st3" d="M245.6 18.1c0 .7-.5 1.2-1.2 1.2s-1.2-.5-1.2-1.2.5-1.2 1.2-1.2 1.2.5 1.2 1.2z"/><path class="st2" d="M250 19.3h2.4v-2.4H250z"/><path class="st3" d="M252.4 18.1c0 .7-.5 1.2-1.2 1.2s-1.2-.5-1.2-1.2.5-1.2 1.2-1.2c.6 0 1.2.5 1.2 1.2z"/><path class="st2" d="M256.7 19.3h2.4v-2.4h-2.4z"/><path class="st3" d="M259.1 18.1c0 .7-.5 1.2-1.2 1.2s-1.2-.5-1.2-1.2.5-1.2 1.2-1.2 1.2.5 1.2 1.2z"/><path class="st2" d="M263.5 19.3h2.4v-2.4h-2.4z"/><path class="st3" d="M265.9 18.1c0 .7-.5 1.2-1.2 1.2s-1.2-.5-1.2-1.2.5-1.2 1.2-1.2c.6 0 1.2.5 1.2 1.2z"/><path class="st2" d="M270.2 19.3h2.4v-2.4h-2.4z"/><path class="st3" d="M272.6 18.1c0 .7-.5 1.2-1.2 1.2s-1.2-.5-1.2-1.2.5-1.2 1.2-1.2 1.2.5 1.2 1.2z"/><path class="st2" d="M277 19.3h2.4v-2.4H277z"/><path class="st3" d="M279.4 18.1c0 .7-.5 1.2-1.2 1.2s-1.2-.5-1.2-1.2.5-1.2 1.2-1.2 1.2.5 1.2 1.2z"/><path class="st2" d="M283.7 19.4l2.4.1.1-2.4-2.4-.1z"/><path class="st3" d="M286.1 18.3c0 .7-.6 1.2-1.3 1.1-.7 0-1.2-.6-1.1-1.3 0-.7.6-1.2 1.3-1.1.7.1 1.2.7 1.1 1.3z"/><path class="st2" d="M290.4 19.8l2.3.3.3-2.4-2.4-.3z"/><path class="st3" d="M292.9 18.9c-.1.7-.7 1.1-1.3 1-.6-.1-1.1-.7-1.1-1.3.1-.7.7-1.1 1.3-1 .7 0 1.1.6 1.1 1.3z"/><path class="st2" d="M297 20.6c0-.1 2.3.4 2.3.4l.4-2.4-1.2-.2-1.2-.2-.3 2.4z"/><path class="st3" d="M299.5 19.9c-.1.7-.7 1.1-1.4.9-.6-.2-1.1-.7-1-1.4.1-.6.7-1.1 1.4-1 .7.2 1.2.8 1 1.5z"/><path class="st2" d="M303.5 22l1.2.2c.3.1.6.1.8.2.2.1.4.1.4.1l.6-2.3s-.1 0-.4-.1c-.2 0-.5-.1-.8-.2-.6-.1-1.2-.3-1.2-.3l-.6 2.4z"/><path class="st3" d="M306.1 21.3c-.2.6-.8 1-1.5.9-.6-.1-1-.8-.9-1.4.1-.6.8-1.1 1.5-.9.7.1 1.1.8.9 1.4z"/><path class="st2" d="M310 23.7l2.2.7.8-2.3-2.3-.7z"/><path class="st3" d="M312.6 23.2c-.2.6-.9 1-1.5.8-.6-.2-1-.8-.8-1.5.2-.6.9-1 1.5-.8.7.2 1 .9.8 1.5z"/><path class="st2" d="M316.3 25.9l2.2.8.9-2.2-2.3-.9z"/><path class="st3" d="M318.9 25.6c-.3.6-1 .9-1.6.7-.6-.2-.9-.9-.7-1.5.2-.6.9-.9 1.6-.7s1 .9.7 1.5z"/><path class="st2" d="M322.4 28.4l2.2 1.1 1-2.2-2.2-1z"/><path class="st3" d="M325.1 28.4c-.3.6-1 .8-1.6.6-.6-.3-.8-1-.6-1.6.3-.6 1-.9 1.6-.6.6.3.9 1 .6 1.6z"/><path class="st2" d="M328.4 31.4l2 1.2 1.2-2.1-2.1-1.2z"/><path class="st3" d="M331 31.6c-.3.6-1.1.8-1.6.4-.6-.3-.8-1.1-.4-1.7.3-.6 1-.8 1.6-.4.6.4.8 1.1.4 1.7z"/><path class="st2" d="M334.1 34.8l2 1.4 1.3-2-2-1.4z"/><path class="st3" d="M336.8 35.2c-.4.5-1.1.7-1.6.3s-.7-1.1-.3-1.7c.4-.6 1.1-.7 1.6-.3.5.4.6 1.1.3 1.7z"/><path class="st2" d="M339.6 38.6s.1.1.3.2c.2.1.4.3.7.5.5.4.9.8.9.8l1.5-1.9s-.5-.4-.9-.8c-.2-.2-.5-.4-.7-.5-.2-.1-.3-.2-.3-.2l-1.5 1.9z"/><path class="st3" d="M342.2 39.1c-.4.5-1.2.6-1.7.2-.5-.4-.6-1.1-.2-1.7.4-.5 1.2-.7 1.7-.2.5.5.6 1.2.2 1.7z"/><path class="st2" d="M344.8 42.8l1.8 1.5 1.6-1.8-1.8-1.6-1.6 1.9z"/><path class="st3" d="M347.4 43.5c-.4.5-1.2.5-1.7.1s-.6-1.2-.1-1.7c.4-.5 1.2-.6 1.7-.1.5.4.5 1.2.1 1.7z"/><path class="st2" d="M349.7 47.4l1.7 1.6 1.7-1.6-1.8-1.7z"/><path class="st3" d="M352.2 48.2c-.5.5-1.2.5-1.7 0s-.5-1.2 0-1.7 1.2-.5 1.7 0 .5 1.3 0 1.7z"/><path class="st2" d="M354.2 52.3l1.6 1.7 1.8-1.5-1.6-1.8z"/><path class="st3" d="M356.7 53.3c-.5.4-1.3.4-1.7-.1-.4-.5-.4-1.2.1-1.7.5-.4 1.3-.4 1.7.1.4.5.4 1.3-.1 1.7z"/><path class="st2" d="M358.4 57.4l1.4 1.9 2-1.4-1.5-1.9z"/><path class="st3" d="M360.8 58.6c-.5.4-1.3.3-1.7-.3s-.3-1.3.3-1.7c.5-.4 1.3-.3 1.7.3s.2 1.4-.3 1.7z"/><path class="st2" d="M362.2 62.9l1.3 2 2-1.3-1.2-2z"/><path class="st3" d="M364.5 64.3c-.6.3-1.3.2-1.6-.4-.3-.6-.2-1.3.4-1.7s1.3-.2 1.6.4c.3.6.2 1.3-.4 1.7z"/><path class="st2" d="M365.7 68.6l1.1 2.1 2.1-1.1-1.1-2.2z"/><path class="st3" d="M367.8 70.1c-.6.3-1.3.1-1.6-.5s-.1-1.3.5-1.6c.6-.3 1.3-.1 1.6.5.4.6.1 1.3-.5 1.6z"/><path class="st2" d="M368.7 74.5s.1.1.2.3c.1.2.2.5.3.7.2.5.5 1.1.5 1.1l2.2-1s-.2-.6-.5-1.1c-.1-.3-.2-.6-.3-.8-.1-.2-.2-.3-.2-.3l-2.2 1.1z"/><path class="st3" d="M370.8 76.2c-.6.3-1.3 0-1.5-.6-.2-.6 0-1.3.6-1.6.6-.3 1.4 0 1.6.6.2.6-.1 1.4-.7 1.6z"/><path class="st2" d="M371.3 80.7s.2.5.5 1.1c.1.3.2.5.3.8.1.2.1.4.1.4l2.3-.8s0-.1-.1-.4c-.1-.2-.2-.5-.3-.8-.2-.6-.5-1.1-.5-1.1l-2.3.8z"/><path class="st3" d="M373.3 82.5c-.6.2-1.3-.1-1.6-.7-.2-.6.1-1.3.7-1.5.6-.2 1.3.1 1.6.7.3.6 0 1.2-.7 1.5z"/><path class="st2" d="M373.5 87l.7 2.2 2.3-.6-.7-2.3z"/><path class="st3" d="M375.4 88.9c-.6.2-1.3-.2-1.5-.8-.2-.6.2-1.3.8-1.5.6-.2 1.3.2 1.5.8.2.7-.2 1.3-.8 1.5z"/><path class="st2" d="M375.3 93.4l.6 2.3 2.3-.5-.5-2.4z"/><path class="st3" d="M377.1 95.5c-.6.1-1.3-.3-1.5-.9-.2-.6.2-1.3.9-1.4.6-.2 1.3.2 1.5.9.1.6-.3 1.2-.9 1.4z"/><path class="st2" d="M376.7 99.9l.2 1.2.2 1.2 2.4-.3-.2-1.2-.2-1.2-2.4.3z"/><path class="st3" d="M378.2 102.1c-.7.1-1.3-.4-1.3-1-.1-.6.3-1.3 1-1.4.6-.1 1.3.3 1.4 1 .1.7-.4 1.3-1.1 1.4z"/><path class="st2" d="M377.6 106.5l.2 2.4 2.4-.2-.2-2.4z"/><path class="st3" d="M379 108.8c-.7 0-1.2-.4-1.3-1.1-.1-.7.4-1.2 1.1-1.3.7-.1 1.2.4 1.3 1.1 0 .7-.5 1.3-1.1 1.3z"/><path class="st2" d="M378 113.2l.1 2.4h2.4l-.1-2.5z"/><path class="st3" d="M379.3 115.6c-.7 0-1.2-.5-1.2-1.2s.5-1.2 1.2-1.2 1.2.5 1.2 1.2-.6 1.2-1.2 1.2z"/><path class="st2" d="M378 119.9v1.2c0 .6-.1 1.2-.1 1.2l2.4.1s.1-.6.1-1.2V120l-2.4-.1z"/><path class="st3" d="M379.1 122.3c-.7 0-1.1-.6-1.1-1.3 0-.7.6-1.2 1.2-1.1s1.2.6 1.2 1.3c0 .6-.6 1.2-1.3 1.1z"/><path class="st2" d="M377.5 126.5s-.1.6-.1 1.2l-.2 1.2 2.4.3.2-1.2.2-1.2-2.5-.3z"/><path class="st3" d="M378.4 129c-.7-.1-1.1-.7-1-1.3.1-.6.7-1.1 1.3-1 .7.1 1.1.7 1 1.3 0 .7-.6 1.1-1.3 1z"/><path class="st2" d="M376.6 133.1l-.5 2.4 2.4.4.4-2.4z"/><path class="st3" d="M377.3 135.7c-.6-.1-1.1-.8-1-1.4s.8-1.1 1.4-1c.7.1 1.1.7 1 1.4-.1.7-.7 1.1-1.4 1z"/><path class="st2" d="M375.2 139.6s-.1.6-.3 1.2c-.1.3-.1.6-.2.8-.1.2-.1.4-.1.4l2.3.6s0-.1.1-.4c.1-.2.1-.5.2-.8.1-.6.3-1.2.3-1.2l-2.3-.6z"/><path class="st3" d="M375.7 142.3c-.6-.2-1-.8-.9-1.5.2-.6.8-1 1.4-.9s1 .8.9 1.5c0 .7-.7 1-1.4.9z"/><path class="st2" d="M373.3 146.1s0 .1-.1.4c-.1.2-.2.5-.3.8-.2.6-.4 1.1-.4 1.1l2.3.8s.2-.6.4-1.1c.1-.3.2-.6.3-.8.1-.2.1-.4.1-.4l-2.3-.8z"/><path class="st3" d="M373.7 148.7c-.6-.2-1-.9-.7-1.5.2-.6.9-1 1.5-.8.6.2 1 .9.7 1.5-.2.7-.9 1-1.5.8z"/><path class="st2" d="M371 152.3l-.9 2.2 2.2 1 1-2.3z"/><path class="st3" d="M371.2 155c-.6-.3-.9-1-.6-1.6.3-.6 1-.9 1.6-.6.6.2.9 1 .6 1.6-.3.6-1 .9-1.6.6z"/><path class="st2" d="M368.3 158.4s-.3.5-.5 1.1c-.1.3-.3.5-.4.7-.1.2-.2.3-.2.3l2.1 1.1s.1-.1.2-.3c.1-.2.2-.5.4-.8.3-.5.5-1.1.5-1.1l-2.1-1z"/><path class="st3" d="M368.4 161.1c-.6-.3-.8-1-.5-1.6.3-.6 1-.8 1.6-.5.6.3.8 1 .6 1.6-.4.6-1.2.8-1.7.5z"/><path class="st2" d="M365.2 164.3s-.1.1-.2.3c-.1.2-.3.4-.4.7l-.6 1 2.1 1.2.6-1c.2-.3.3-.5.4-.7.1-.2.2-.3.2-.3l-2.1-1.2z"/><path class="st3" d="M365 167c-.6-.3-.7-1.1-.4-1.6.4-.6 1.1-.7 1.6-.4.6.3.8 1.1.4 1.6-.3.5-1 .7-1.6.4z"/><path class="st2" d="M361.7 170l-1.4 1.9 2 1.4 1.4-2z"/><path class="st3" d="M361.3 172.6c-.5-.4-.7-1.1-.3-1.7.4-.5 1.1-.7 1.7-.3.6.4.7 1.1.3 1.7s-1.1.7-1.7.3z"/><path class="st2" d="M357.8 175.4s-.4.5-.7.9c-.4.5-.7.9-.7.9l1.9 1.5.8-1c.4-.5.7-1 .7-1l-2-1.3z"/><path class="st3" d="M357.3 178c-.5-.4-.6-1.2-.2-1.7.4-.5 1.1-.6 1.7-.2.5.4.6 1.2.2 1.7-.5.6-1.2.6-1.7.2z"/><path class="st2" d="M353.5 180.5s-.4.4-.8.9c-.4.4-.8.9-.8.9l1.8 1.6s.4-.4.8-.9c.4-.4.8-.9.8-.9l-1.8-1.6z"/><path class="st3" d="M352.8 183.1c-.5-.5-.5-1.2-.1-1.7.5-.5 1.2-.5 1.7-.1s.5 1.2.1 1.7c-.5.5-1.2.5-1.7.1z"/><path class="st2" d="M348.9 185.3l-1.7 1.7 1.6 1.7 1.8-1.6z"/><path class="st3" d="M348 187.9c-.5-.5-.4-1.2 0-1.7.5-.5 1.2-.4 1.7 0 .5.5.4 1.2 0 1.7-.5.5-1.2.4-1.7 0z"/><path class="st2" d="M344 189.8s-.4.4-.9.8c-.4.4-.9.8-.9.8l1.5 1.9s.5-.4.9-.8c.5-.4.9-.8.9-.8l-1.5-1.9z"/><path class="st3" d="M342.9 192.3c-.4-.5-.3-1.3.2-1.7.5-.4 1.2-.4 1.7.1.4.5.4 1.3-.1 1.7-.6.5-1.4.4-1.8-.1z"/><path class="st2" d="M338.8 194s-.1.1-.3.2c-.2.1-.4.3-.7.5-.5.3-1 .7-1 .7l1.4 2s.5-.3 1-.7c.2-.2.5-.3.7-.5.2-.1.3-.2.3-.2l-1.4-2z"/><path class="st3" d="M337.5 196.3c-.4-.5-.3-1.3.3-1.7.5-.4 1.3-.2 1.7.3.4.5.3 1.3-.3 1.7-.5.4-1.3.3-1.7-.3z"/><path class="st2" d="M333.3 197.8l-2.1 1.2 1.3 2.1 2.1-1.3z"/><path class="st3" d="M331.9 200c-.3-.6-.2-1.3.4-1.7.6-.3 1.3-.2 1.7.4.4.6.2 1.3-.4 1.7-.7.4-1.4.2-1.7-.4z"/><path class="st2" d="M327.5 201.1l-1 .6c-.3.1-.5.3-.7.4-.2.1-.3.2-.3.2l1.1 2.1s.1-.1.3-.2c.2-.1.5-.3.7-.4.5-.3 1.1-.6 1.1-.6l-1.2-2.1z"/><path class="st3" d="M326 203.3c-.3-.6-.1-1.3.5-1.6.6-.3 1.3-.1 1.6.5.3.6.1 1.3-.5 1.6-.6.3-1.3.1-1.6-.5z"/><path class="st2" d="M321.5 204.1s-.5.3-1.1.5c-.5.2-1.1.5-1.1.5l.9 2.2s.6-.2 1.1-.5c.6-.2 1.1-.5 1.1-.5l-.9-2.2z"/><path class="st3" d="M319.8 206.1c-.3-.6 0-1.3.6-1.6.6-.2 1.3 0 1.6.6.3.6 0 1.3-.6 1.6-.6.3-1.3.1-1.6-.6z"/><path class="st2" d="M315.4 206.6l-2.3.8.8 2.3 2.3-.8z"/><path class="st3" d="M313.5 208.6c-.2-.6.1-1.3.7-1.5.6-.2 1.3.1 1.5.7.2.6-.1 1.3-.7 1.5-.6.2-1.3-.1-1.5-.7z"/><path class="st2" d="M309 208.7l-2.2.7.6 2.3 2.3-.7z"/><path class="st3" d="M307.1 210.6c-.2-.6.2-1.3.8-1.5.6-.2 1.3.2 1.5.8.2.6-.2 1.3-.8 1.5-.7.2-1.4-.2-1.5-.8z"/><path class="st2" d="M302.6 210.4s-.6.1-1.2.3c-.3.1-.6.1-.8.2-.2 0-.4.1-.4.1l.5 2.4s.1 0 .4-.1c.2 0 .5-.1.8-.2.6-.1 1.2-.3 1.2-.3l-.5-2.4z"/><path class="st3" d="M300.5 212.1c-.1-.7.3-1.2.9-1.4.6-.1 1.3.3 1.4.9.1.6-.3 1.3-.9 1.4-.6.2-1.3-.3-1.4-.9z"/><path class="st2" d="M296 211.6l-1.2.2-1.2.2.3 2.4 1.2-.2 1.2-.2-.3-2.4z"/><path class="st3" d="M293.8 213.2c-.1-.7.4-1.3 1-1.3.6-.1 1.3.4 1.4 1 .1.7-.4 1.3-1 1.4-.7 0-1.3-.5-1.4-1.1z"/><path class="st2" d="M289.4 212.4l-2.4.2.2 2.4 2.4-.2z"/><path class="st3" d="M287.1 213.8c0-.7.5-1.2 1.1-1.3.7 0 1.2.5 1.3 1.1.1.7-.4 1.2-1.1 1.3-.7 0-1.3-.5-1.3-1.1z"/><path class="st2" d="M282.7 212.7h-2.4l.1 2.4h2.4z"/><path class="st3" d="M280.3 213.9c0-.7.5-1.2 1.2-1.2s1.2.5 1.2 1.2-.5 1.2-1.2 1.2c-.6 0-1.2-.5-1.2-1.2z"/><path class="st2" d="M273.6 212.7h2.4v2.4h-2.4z"/><circle class="st3" cx="274.8" cy="213.9" r="1.2"/><path class="st2" d="M266.8 212.8h2.4v2.4h-2.4z"/><circle class="st3" cx="268" cy="214" r="1.2"/><path class="st2" d="M260.1 212.8h2.4v2.4h-2.4z"/><circle class="st3" cx="261.3" cy="214" r="1.2"/><path class="st2" d="M253.3 212.8h2.4v2.4h-2.4z"/><circle class="st3" cx="254.5" cy="214" r="1.2"/><path class="st2" d="M246.6 212.8h2.4v2.4h-2.4z"/><circle class="st3" cx="247.8" cy="214" r="1.2"/><path class="st2" d="M239.8 212.8h2.4v2.4h-2.4z"/><circle class="st3" cx="241" cy="214" r="1.2"/><path class="st2" d="M233.1 212.8h2.4v2.4h-2.4z"/><circle class="st3" cx="234.3" cy="214" r="1.2"/><path class="st2" d="M226.3 212.8h2.4v2.4h-2.4z"/><circle class="st3" cx="227.5" cy="214" r="1.2"/><path class="st2" d="M219.5 212.8h2.4v2.4h-2.4z"/><circle class="st3" cx="220.7" cy="214" r="1.2"/><path class="st2" d="M212.8 212.8h2.4v2.4h-2.4z"/><circle class="st3" cx="214" cy="214" r="1.2"/><path class="st2" d="M206 212.8h2.4v2.4H206z"/><circle class="st3" cx="207.2" cy="214" r="1.2"/><path class="st2" d="M199.3 212.8h2.4v2.4h-2.4z"/><circle class="st3" cx="200.5" cy="214" r="1.2"/><g><path class="st2" d="M192.5 212.8h2.4v2.4h-2.4z"/><circle class="st3" cx="193.7" cy="214" r="1.2"/></g><g><path class="st2" d="M185.8 212.8h2.4v2.4h-2.4z"/><circle class="st3" cx="187" cy="214" r="1.2"/></g><g><path class="st2" d="M179 212.8h2.4v2.4H179z"/><circle class="st3" cx="180.2" cy="214" r="1.2"/></g><g><path class="st2" d="M172.3 212.8h2.4v2.4h-2.4z"/><circle class="st3" cx="173.5" cy="214" r="1.2"/></g><g><path class="st2" d="M165.5 212.8h2.4v2.4h-2.4z"/><circle class="st3" cx="166.7" cy="214" r="1.2"/></g><g><path class="st2" d="M158.7 212.8h2.4v2.4h-2.4z"/><circle class="st3" cx="159.9" cy="214" r="1.2"/></g><g><path class="st2" d="M152 212.8h2.4v2.4H152z"/><circle class="st3" cx="153.2" cy="214" r="1.2"/></g><g><path class="st2" d="M145.2 212.8h2.4v2.4h-2.4z"/><circle class="st3" cx="146.4" cy="214" r="1.2"/></g><g><path class="st2" d="M138.5 212.8h2.4v2.4h-2.4z"/><circle class="st3" cx="139.7" cy="214" r="1.2"/></g><g><path class="st2" d="M131.7 212.8h2.4v2.4h-2.4z"/><circle class="st3" cx="132.9" cy="214" r="1.2"/></g><g><path class="st2" d="M125 212.8h2.4v2.4H125z"/><circle class="st3" cx="126.2" cy="214" r="1.2"/></g><g><path class="st2" d="M120.6 212.8l-2.4-.1v2.4l2.4.1z"/><path class="st3" d="M118.2 213.9c0-.7.6-1.2 1.2-1.2.7 0 1.2.6 1.2 1.2 0 .7-.5 1.2-1.2 1.1-.7.1-1.2-.5-1.2-1.1z"/></g><g><path class="st2" d="M113.9 212.5h-1.2c-.3 0-.6 0-.8-.1h-.4l-.2 2.4h.4c.2 0 .5.1.8.1.6 0 1.2.1 1.2.1l.2-2.5z"/><path class="st3" d="M111.5 213.5c.1-.7.6-1.1 1.3-1.1.7 0 1.1.6 1.1 1.2 0 .7-.6 1.2-1.3 1.1-.7.1-1.2-.5-1.1-1.2z"/></g><g><path class="st2" d="M107.3 211.8l-2.4-.3-.3 2.4 2.4.3z"/><path class="st3" d="M104.8 212.7c.1-.7.7-1.1 1.4-1 .6.1 1.1.7 1 1.3-.1.7-.7 1.1-1.4 1-.7-.1-1.1-.7-1-1.3z"/></g><g><path class="st2" d="M100.7 210.7l-2.3-.5-.5 2.4 2.4.5z"/><path class="st3" d="M98.1 211.4c.1-.6.8-1.1 1.4-.9.6.1 1.1.8.9 1.4-.1.7-.8 1.1-1.4.9s-1-.8-.9-1.4z"/></g><g><path class="st2" d="M94.2 209.2l-2.3-.6-.6 2.3 2.3.6z"/><path class="st3" d="M91.6 209.7c.2-.6.9-1 1.5-.8.6.2 1 .8.8 1.5-.2.6-.8 1-1.5.8-.6-.2-1-.9-.8-1.5z"/></g><g><path class="st2" d="M87.8 207.3l-2.2-.8-.8 2.2 2.3.9z"/><path class="st3" d="M85.2 207.6c.2-.6.9-.9 1.5-.7.6.2.9.9.7 1.6-.2.6-.9.9-1.5.7-.6-.3-.9-1-.7-1.6z"/></g><g><path class="st2" d="M81.6 204.9c0 .1-2.2-1-2.2-1l-1 2.2s2.2 1.1 2.2 1l1-2.2z"/><path class="st3" d="M78.9 205.1c.3-.6 1-.9 1.6-.6.6.3.9 1 .6 1.6-.3.6-1 .9-1.6.6-.6-.3-.8-1-.6-1.6z"/></g><g><path class="st2" d="M75.5 202.1s-2.1-1-2.1-1.1l-1.1 2.1c0 .1 2.2 1.1 2.2 1.1l1-2.1z"/><path class="st3" d="M72.9 202.1c.3-.6 1-.8 1.6-.5.6.3.8 1 .5 1.6-.3.6-1 .8-1.6.5-.7-.2-.9-1-.5-1.6z"/></g><g><path class="st2" d="M69.7 198.9l-2-1.2-1.3 2 2.1 1.3z"/><path class="st3" d="M67 198.7c.4-.6 1.1-.7 1.7-.4.6.3.8 1.1.4 1.6-.3.6-1.1.8-1.7.4-.6-.3-.7-1-.4-1.6z"/></g><g><path class="st2" d="M64.1 195.3l-1.9-1.4-1.5 2 2 1.4z"/><path class="st3" d="M61.4 194.9c.4-.5 1.1-.7 1.7-.3.5.4.7 1.1.3 1.7-.4.5-1.1.7-1.7.3-.5-.4-.6-1.2-.3-1.7z"/></g><g><path class="st2" d="M58.8 191.3l-1.9-1.5-1.5 1.8 1.9 1.6z"/><path class="st3" d="M56.1 190.7c.4-.5 1.2-.6 1.7-.2s.6 1.2.2 1.7c-.4.5-1.2.6-1.7.2-.5-.4-.6-1.2-.2-1.7z"/></g><g><path class="st2" d="M53.7 187l-1.7-1.7-1.7 1.7 1.8 1.7z"/><path class="st3" d="M51.2 186.2c.5-.5 1.2-.5 1.7 0s.5 1.2 0 1.7c-.4.5-1.2.5-1.7 0s-.5-1.3 0-1.7z"/></g><g><path class="st2" d="M48.9 182.3l-1.5-1.8-1.8 1.6 1.6 1.8z"/><path class="st3" d="M46.5 181.3c.5-.4 1.2-.4 1.7.1.4.5.4 1.3-.1 1.7-.5.5-1.2.4-1.7-.1-.4-.5-.4-1.3.1-1.7z"/></g><g><path class="st2" d="M44.6 177.2s-.1-.1-.2-.3c-.2-.2-.3-.4-.5-.6-.4-.5-.7-1-.7-1l-1.9 1.5s.4.5.7 1c.2.2.4.5.5.7.1.2.2.3.2.3l1.9-1.6z"/><path class="st3" d="M42.2 176.1c.5-.4 1.3-.3 1.7.2.4.5.3 1.2-.2 1.7-.5.4-1.3.4-1.7-.2-.5-.5-.4-1.3.2-1.7z"/></g><g><path class="st2" d="M40.6 171.9l-1.4-1.9-2 1.3c-.1 0 1.4 2 1.4 2l2-1.4z"/><path class="st3" d="M38.2 170.6c.6-.4 1.3-.2 1.7.3.4.5.3 1.3-.3 1.6-.5.4-1.3.3-1.7-.3-.4-.4-.2-1.2.3-1.6z"/></g><g><path class="st2" d="M37 166.3l-1.3-2-2.1 1.2 1.3 2z"/><path class="st3" d="M34.7 164.9c.6-.3 1.3-.1 1.7.4.3.6.2 1.3-.4 1.6-.6.3-1.3.2-1.7-.4-.4-.6-.2-1.3.4-1.6z"/></g><g><path class="st2" d="M33.7 160.5l-1-2.1-2.2 1 1.1 2.2z"/><path class="st3" d="M31.6 158.9c.6-.3 1.3 0 1.6.5.3.6.1 1.3-.5 1.6-.6.3-1.3.1-1.6-.5-.4-.6-.1-1.3.5-1.6z"/></g><g><path class="st2" d="M30.9 154.4l-.9-2.2-2.2.9.9 2.3z"/><path class="st3" d="M28.9 152.7c.6-.2 1.3 0 1.6.7.2.6 0 1.3-.7 1.6-.6.3-1.3 0-1.6-.7s.1-1.4.7-1.6z"/></g><g><path class="st2" d="M28.4 148.2l-.7-2.2-2.3.7.8 2.3z"/><path class="st3" d="M26.6 146.3c.6-.2 1.3.1 1.5.8.2.6-.2 1.3-.8 1.5-.6.2-1.3-.1-1.5-.8-.2-.6.2-1.3.8-1.5z"/></g><g><path class="st2" d="M26.4 141.9s0-.1-.1-.4c-.1-.2-.2-.5-.2-.8-.1-.6-.3-1.2-.3-1.2l-2.3.6s.1.6.3 1.2c.1.3.2.6.2.8.1.2.1.4.1.4l2.3-.6z"/><path class="st3" d="M24.7 139.9c.6-.2 1.3.2 1.4.9.2.6-.2 1.3-.8 1.5-.6.2-1.3-.2-1.5-.8-.2-.8.2-1.5.9-1.6z"/></g><g><path class="st2" d="M24.9 135.4l-.5-2.4-2.3.5.4 2.4z"/><path class="st3" d="M23.3 133.3c.7-.1 1.3.3 1.4 1 .1.6-.3 1.3-1 1.4-.6.1-1.3-.3-1.4-1-.1-.7.3-1.3 1-1.4z"/></g><g><path class="st2" d="M23.8 128.8l-.3-2.4-2.4.3.3 2.4z"/><path class="st3" d="M22.3 126.6c.7-.1 1.3.4 1.3 1 .1.6-.4 1.2-1 1.3-.7.1-1.3-.4-1.3-1-.2-.7.3-1.2 1-1.3z"/></g><g><path class="st2" d="M23.1 122.2s0-.6-.1-1.2c0-.3 0-.6-.1-.8v-.4l-2.4.1v.4c0 .2 0 .5.1.8 0 .6.1 1.2.1 1.2l2.4-.1z"/><path class="st3" d="M21.8 119.8c.7 0 1.2.5 1.3 1.1 0 .7-.5 1.2-1.1 1.3-.7 0-1.2-.5-1.3-1.1-.1-.7.4-1.2 1.1-1.3z"/></g><g><path class="st2" d="M22.9 115.5v-1.2-1.2l-2.4-.1v2.4l2.4.1z"/><path class="st3" d="M21.7 113.1c.7 0 1.2.6 1.2 1.2 0 .7-.5 1.2-1.2 1.2s-1.2-.5-1.2-1.2.6-1.2 1.2-1.2z"/></g><g><path class="st2" d="M23.2 108.8l.2-2.3-2.4-.3-.2 2.5z"/><path class="st3" d="M22.2 106.4c.7.1 1.1.6 1.1 1.3s-.6 1.1-1.3 1.1c-.7 0-1.1-.6-1.1-1.3 0-.7.6-1.2 1.3-1.1z"/></g><g><path class="st2" d="M23.9 102.2l.3-2.3-2.3-.4-.4 2.4z"/><path class="st3" d="M23.1 99.7c.7.1 1.1.7 1 1.4-.1.6-.7 1.1-1.4 1-.7-.1-1.1-.7-1-1.4.1-.7.7-1.2 1.4-1z"/></g><g><path class="st2" d="M25.1 95.6l.2-1.2c.1-.6.3-1.1.3-1.1l-2.3-.6s-.1.6-.3 1.2c-.1.6-.3 1.2-.3 1.2l2.4.5z"/><path class="st3" d="M24.4 93c.6.2 1 .8.9 1.4-.2.6-.8 1-1.4.9-.6-.1-1.1-.8-.9-1.4.1-.6.8-1 1.4-.9z"/></g><g><path class="st2" d="M26.7 89.2l.7-2.3-2.3-.7-.7 2.3z"/><path class="st3" d="M26.3 86.5c.6.2 1 .9.8 1.5-.2.6-.9 1-1.5.8-.6-.2-1-.9-.8-1.5.2-.6.8-1 1.5-.8z"/></g><g><path class="st2" d="M28.8 82.8l.8-2.2-2.2-.9-.9 2.3z"/><path class="st3" d="M28.5 80.2c.6.2.9.9.7 1.6-.2.6-.9.9-1.5.7-.6-.2-.9-.9-.7-1.6.2-.7.9-1 1.5-.7z"/></g><g><path class="st2" d="M31.3 76.6s.2-.6.5-1.1c.3-.5.5-1.1.5-1.1l-2.2-1s-.3.5-.5 1.1c-.3.6-.5 1.1-.5 1.1l2.2 1z"/><path class="st3" d="M31.2 74c.6.3.9 1 .6 1.6-.3.6-1 .9-1.6.6-.6-.3-.9-1-.6-1.6.3-.6 1-.9 1.6-.6z"/></g><g><path class="st2" d="M34.2 70.6l1.2-2-2.1-1.2-1.2 2.1z"/><path class="st3" d="M34.3 68c.6.3.8 1.1.5 1.6-.3.6-1 .8-1.6.5-.6-.3-.8-1-.5-1.6.3-.6 1-.8 1.6-.5z"/></g><g><path class="st2" d="M37.5 64.9l1.3-2-2-1.4-1.3 2.1z"/><path class="st3" d="M37.8 62.2c.6.4.7 1.1.4 1.7-.3.6-1.1.7-1.6.4-.6-.3-.7-1.1-.4-1.7.3-.6 1-.8 1.6-.4z"/></g><g><path class="st2" d="M41.2 59.3s.3-.5.7-1c.4-.5.7-.9.7-.9L40.7 56s-.4.5-.7 1c-.4.5-.7 1-.7 1l1.9 1.3z"/><path class="st3" d="M41.7 56.7c.5.4.6 1.1.2 1.7-.4.5-1.1.7-1.7.3-.5-.4-.7-1.2-.3-1.7.5-.6 1.3-.7 1.8-.3z"/></g><g><path class="st2" d="M45.3 54l1.6-1.8-1.9-1.5-1.5 1.8z"/><path class="st3" d="M45.9 51.4c.5.4.6 1.2.1 1.7-.4.5-1.2.6-1.7.1-.5-.4-.6-1.2-.1-1.7.5-.4 1.2-.5 1.7-.1z"/></g><g><path class="st2" d="M49.7 49l1.7-1.7-1.7-1.7-1.7 1.8z"/><path class="st3" d="M50.5 46.5c.5.5.5 1.2 0 1.7s-1.2.5-1.7 0-.5-1.2 0-1.7 1.3-.5 1.7 0z"/></g><g><path class="st2" d="M54.5 44.4s.4-.4.9-.8.9-.8.9-.8L54.7 41s-.5.4-.9.8c-.5.4-.9.8-.9.8l1.6 1.8z"/><path class="st3" d="M55.5 41.9c.4.5.4 1.3-.1 1.7-.5.4-1.2.4-1.7-.1-.4-.5-.4-1.3.1-1.7.5-.5 1.2-.4 1.7.1z"/></g><g><path class="st2" d="M59.6 40l1.8-1.4-1.4-1.9-1.9 1.4z"/><path class="st3" d="M60.7 37.6c.4.5.3 1.3-.2 1.7-.5.4-1.3.3-1.7-.2-.4-.5-.3-1.3.2-1.7.6-.4 1.3-.3 1.7.2z"/></g><g><path class="st2" d="M64.9 36.1l2-1.4-1.3-2-2 1.4z"/><path class="st3" d="M66.2 33.7c.4.6.2 1.3-.3 1.7-.5.4-1.3.2-1.7-.3-.4-.5-.2-1.3.3-1.7.6-.4 1.4-.2 1.7.3z"/></g><g><path class="st2" d="M70.5 32.5l1-.6 1-.6-1.2-2.1s-.5.3-1.1.6l-1 .6 1.3 2.1z"/><path class="st3" d="M72 30.2c.3.6.1 1.3-.5 1.6-.6.3-1.3.1-1.6-.4-.3-.6-.2-1.3.4-1.7.7-.2 1.4 0 1.7.5z"/></g><g><path class="st2" d="M76.4 29.3l2.1-1-1-2.2-2.2 1z"/><path class="st3" d="M78 27.2c.3.6 0 1.3-.6 1.6s-1.3 0-1.6-.6c-.3-.6 0-1.3.6-1.6s1.4 0 1.6.6z"/></g><g><path class="st2" d="M82.5 26.5l2.2-.9-.9-2.2-2.2.9z"/><path class="st3" d="M84.2 24.5c.2.6-.1 1.3-.7 1.6-.5.2-1.2-.1-1.5-.7-.3-.6 0-1.3.7-1.6.6-.2 1.3.1 1.5.7z"/></g><g><path class="st2" d="M88.7 24.2s.6-.2 1.1-.4c.6-.2 1.1-.3 1.1-.3l-.7-2.3s-.6.2-1.2.3l-1.2.4.9 2.3z"/><path class="st3" d="M90.6 22.4c.2.6-.2 1.3-.8 1.5-.6.2-1.3-.1-1.5-.8-.2-.6.1-1.3.8-1.5.7-.3 1.4.1 1.5.8z"/></g><g><path class="st2" d="M95.1 22.3l2.3-.5-.5-2.3-2.4.5z"/><path class="st3" d="M97.2 20.6c.1.6-.3 1.3-.9 1.4s-1.3-.3-1.5-.9c-.2-.6.2-1.3.9-1.4.7-.1 1.3.3 1.5.9z"/></g><g><path class="st2" d="M101.6 21l2.4-.4-.4-2.4-2.4.4z"/><path class="st3" d="M103.8 19.4c.1.7-.3 1.3-1 1.4-.6.1-1.3-.3-1.4-1-.1-.7.3-1.3 1-1.4.7-.1 1.3.3 1.4 1z"/></g><g><path class="st2" d="M108.2 20l2.4-.2-.2-2.4-2.4.2z"/><path class="st3" d="M110.5 18.6c.1.7-.4 1.2-1.1 1.3-.7.1-1.2-.4-1.3-1.1-.1-.7.4-1.3 1.1-1.3.7-.1 1.3.4 1.3 1.1z"/></g><g><path class="st2" d="M114.9 19.5l2.4-.1-.1-2.4-2.4.1z"/><path class="st3" d="M117.3 18.2c0 .7-.5 1.2-1.2 1.2s-1.2-.5-1.2-1.1c0-.7.5-1.2 1.2-1.3.6 0 1.1.5 1.2 1.2z"/></g><g><path class="st2" d="M121.6 19.3h2.4v-2.4h-2.4z"/><path class="st3" d="M124 18.1c0 .7-.5 1.2-1.2 1.2s-1.2-.5-1.2-1.2.5-1.2 1.2-1.2 1.2.5 1.2 1.2z"/></g><g><path class="st2" d="M128.4 16.9h2.4v2.4h-2.4z"/><circle class="st3" cx="129.6" cy="18.1" r="1.2"/></g><g><path class="st2" d="M135.1 16.9h2.4v2.4h-2.4z"/><circle class="st3" cx="136.3" cy="18.1" r="1.2"/></g><g><path class="st2" d="M141.9 16.9h2.4v2.4h-2.4z"/><circle class="st3" cx="143.1" cy="18.1" r="1.2"/></g><g><path class="st2" d="M148.6 16.9h2.4v2.4h-2.4z"/><circle class="st3" cx="149.8" cy="18.1" r="1.2"/></g><g><path class="st2" d="M155.4 16.9h2.4v2.4h-2.4z"/><circle class="st3" cx="156.6" cy="18.1" r="1.2"/></g><g><path class="st2" d="M162.1 16.9h2.4v2.4h-2.4z"/><circle class="st3" cx="163.3" cy="18.1" r="1.2"/></g><g><path class="st2" d="M168.9 16.9h2.4v2.4h-2.4z"/><circle class="st3" cx="170.1" cy="18.1" r="1.2"/></g><g><path class="st2" d="M175.6 16.9h2.4v2.4h-2.4z"/><circle class="st3" cx="176.9" cy="18.1" r="1.2"/></g><g><path class="st2" d="M182.4 16.9h2.4v2.4h-2.4z"/><circle class="st3" cx="183.6" cy="18.1" r="1.2"/></g><g><path class="st2" d="M189.2 16.9h2.4v2.4h-2.4z"/><circle class="st3" cx="190.4" cy="18.1" r="1.2"/></g><g><path class="st2" d="M195.9 16.8h2.4v2.4h-2.4z"/><circle class="st3" cx="197.1" cy="18" r="1.2"/></g><g><path class="st4" d="M262.5 45v16.8c1.2-.8 2.4-1.4 3.6-1.8 3.9-1.1 7.6-.8 11 1.5 2.7 1.8 4.1 4.5 4.7 7.6.3 1.3.4 2.6.4 3.8v17.4c0 .4-.1.5-.5.5h-6c-.5 0-.6-.1-.6-.6V73.3c0-1.2-.1-2.4-.5-3.5-.8-2.2-2.3-3.3-4.6-3.3-1.7 0-3.3.4-4.8 1.4-1.9 1.3-2.6 3.2-2.7 5.4-.1 2 0 4.1 0 6.2v10.8c0 .4-.1.5-.5.5h-6.2c-.4 0-.5-.1-.5-.5V56.5 45h7.2zM168.4 45V90.3c0 .4-.1.6-.5.6h-6.1c-.3 0-.4 0-.4-.4V45.3v-.1c2.3-.2 4.6-.2 7-.2zM118.7 68.9c.1-5.8 1.7-11.1 5.6-15.5 3.4-3.9 7.8-6.2 12.9-6.8 7.7-.9 14.1 1.6 19.3 7.3.2.2.2.3 0 .5l-4.5 4.5c-.2.2-.3.2-.5 0-.8-.8-1.6-1.7-2.6-2.4-5.1-3.8-12.2-4-17.2-.4-3 2.2-4.8 5.3-5.6 8.9-.9 4.1-.5 8.1 1.4 11.9 2.6 5.1 8 8 13.8 7.4 3.8-.4 7-2 9.6-4.7.3-.3.5-.7.8-.7.3 0 .6.5.8.7 1.3 1.3 2.6 2.6 3.8 3.9.2.2.3.3.1.5-3.3 3.6-7.2 6-12 7-11.2 2.3-21.8-4-25-15-.3-2.3-.7-4.6-.7-7.1zM194.2 89c-.9.6-1.7 1.1-2.5 1.4-4.3 1.6-8.4 1.5-12.3-1.1-2.5-1.7-3.8-4.2-4.5-7.1-.4-1.5-.5-3.1-.5-4.7V60.6c0-.4.1-.5.5-.5h6.2c.4 0 .5.1.5.5v17.5c0 1.2.2 2.3.6 3.4.9 2.2 2.7 3.2 5.2 2.9 1.1-.1 2.1-.3 3-.8 2.2-1 3.3-2.8 3.7-5.1.1-.7.1-1.4.1-2.1V60.7c0-.7-.1-.6.7-.6h6.1c.3 0 .4.1.4.4v30c0 .3-.1.4-.4.4h-6.4c-.3 0-.4-.1-.4-.4V89zM241.1 91.4c-9.3 0-15.6-5-17.1-12.6-1.1-5.7.2-10.9 4.4-15.1 2.5-2.4 5.5-3.7 8.9-4.1 4-.5 7.7.2 11.1 2.4 1.2.7 2.2 1.7 3.2 2.6.2.2.1.2 0 .4l-4.6 4.6c-.2.2-.3.1-.4 0-.4-.4-.8-.7-1.2-1-3.3-2.6-8.5-2.6-11.8.1-2.2 1.8-3 4.3-2.9 7.1.1 3.2 1.4 5.7 4.1 7.4 3.4 2.1 7.9 1.6 10.9-1 .3-.3.6-.5.9-.8.2-.2.3-.2.5 0 1.6 1.5 3.1 3.1 4.7 4.6.2.2.1.3 0 .4-3.4 3.2-7.5 5-10.7 5zM216.8 78.8v11.5c0 .4-.1.5-.5.5h-6.2c-.4 0-.5-.1-.5-.5v-23c0-.4-.1-.6-.6-.6h-4c-.3 0-.4-.1-.4-.4v-6c0-.3.1-.4.4-.4h4.2c.3 0 .4-.1.4-.4V50c0-.3 0-.5.4-.5h6.3c.4 0 .4.1.4.5v9.4c0 .4.1.5.5.5h4.9c.3 0 .4.1.4.4v5.9c0 .3-.1.4-.4.4h-4.9c-.4 0-.5.1-.5.5.1 4 .1 7.8.1 11.7z"/><path class="st5" d="M239.3 80.7c-3 0-5.4-2.4-5.3-5.4 0-3 2.4-5.3 5.4-5.3 2.9 0 5.3 2.4 5.3 5.4 0 3-2.4 5.4-5.4 5.3z"/></g></svg>