<svg xmlns="http://www.w3.org/2000/svg" width="169.75" height="183" viewBox="0 0 169.75 183"><path fill-rule="evenodd" clip-rule="evenodd" fill="#E64C3C" d="M83.818 28.834h.12c-.04 0-.08.012-.12.017-.04-.005-.078-.017-.118-.017h.118zm-377.923 153.831h.12c-.041.004-.08.016-.12.02-.04-.004-.078-.016-.119-.02h.119zm450.383-75.157l-18.183.271-.031 47.021c0 5.455-1.605 8.367-9.717 8.367l-17.933-.014c-6.977 0-9.33-2.122-9.33-8.624v-46.967H68.423v46.696c0 6.217-2.394 8.369-10.527 8.369H39c-4.928 0-7.287-2.457-7.287-8.369l.003-46.75H13.264s-23.602-6.438-3.411-26.629l63.442-56.172c3.22-2.851 7.269-4.393 11.452-4.853 4.184.46 8.233 2.001 11.454 4.853l63.442 56.172c20.743 20.743-3.365 26.629-3.365 26.629zM83.814 22.085h.123c-.042.004-.082.016-.123.02-.041-.004-.081-.016-.122-.02h.122z"/></svg>