<?xml version="1.0" encoding="utf-8"?><!DOCTYPE svg PUBLIC "-//W3C//DTD SVG 1.1//EN" "http://www.w3.org/Graphics/SVG/1.1/DTD/svg11.dtd"><svg version="1.1" id="Layer_1" xmlns="http://www.w3.org/2000/svg" xmlns:xlink="http://www.w3.org/1999/xlink" x="0px" y="0px" width="327.333px" height="328.266px" viewBox="0 0 327.333 328.266" enable-background="new 0 0 327.333 328.266" xml:space="preserve"><g><g><g><path fill="#941A1D" d="M159.234,176.478c40.353,0,73.062-38.289,73.062-85.516c0-65.494-32.709-85.516-73.062-85.516c-40.35,0-73.06,20.021-73.06,85.516C86.175,138.188,118.884,176.478,159.234,176.478L159.234,176.478z M159.234,176.478"/><path fill="#941A1D" d="M317.2,306.418l-36.859-83.034c-1.354-3.053-3.706-5.556-6.669-7.096l-58.692-30.557c-3.547-1.843-7.688-2.171-11.475-0.907c-3.791,1.268-6.905,4.014-8.629,7.617l-24.947,52.05l3.143-28.312c0.1-0.885-0.128-1.778-0.638-2.512l-10.17-14.626c-0.036-0.05-0.081-0.093-0.115-0.144l8.797-6.677c0.759-0.576,1.205-1.477,1.205-2.427c0-3.563-2.9-6.464-6.464-6.464h-12.902c-3.563,0-6.464,2.9-6.464,6.464c0,0.95,0.447,1.851,1.206,2.427l8.799,6.677c-0.04,0.051-0.079,0.094-0.115,0.144l-10.173,14.626c-0.512,0.733-0.739,1.627-0.638,2.512l3.138,28.312l-24.941-52.05c-1.728-3.604-4.841-6.35-8.632-7.617c-3.788-1.264-7.931-0.936-11.471,0.907l-58.697,30.557c-2.962,1.54-5.311,4.043-6.669,7.096l-36.86,83.034c-2.022,4.561-1.605,9.834,1.116,14.021c2.717,4.183,7.372,6.706,12.361,6.706h288.983c4.988,0,9.638-2.523,12.36-6.71C318.805,316.252,319.226,310.979,317.2,306.418L317.2,306.418z M317.2,306.418"/></g></g></g></svg>