<?xml version="1.0" encoding="utf-8"?><!DOCTYPE svg PUBLIC "-//W3C//DTD SVG 1.1//EN" "http://www.w3.org/Graphics/SVG/1.1/DTD/svg11.dtd"><svg version="1.1" id="Layer_1" xmlns="http://www.w3.org/2000/svg" xmlns:xlink="http://www.w3.org/1999/xlink" x="0px" y="0px" width="327.333px" height="328.266px" viewBox="0 0 327.333 328.266" enable-background="new 0 0 327.333 328.266" xml:space="preserve"><g><g><g><path fill="#E9544A" d="M163.669,175.805c40.531,0,73.391-38.46,73.391-85.901C237.06,24.114,204.2,4,163.669,4c-40.535,0-73.395,20.114-73.395,85.903C90.274,137.344,123.134,175.805,163.669,175.805L163.669,175.805z M163.669,175.805"/><path fill="#E9544A" d="M325.731,302.242l-37.027-83.41c-1.69-3.82-4.668-6.984-8.371-8.91l-57.465-29.914c-1.265-0.66-2.801-0.531-3.94,0.332c-16.25,12.293-35.36,18.789-55.258,18.789c-19.902,0-39.012-6.496-55.262-18.789c-1.144-0.863-2.679-0.992-3.945-0.332l-57.461,29.914c-3.707,1.926-6.676,5.09-8.371,8.91l-37.027,83.41c-2.555,5.75-2.032,12.328,1.398,17.602s9.23,8.422,15.52,8.422H308.81c6.293,0,12.093-3.148,15.522-8.422C327.759,314.57,328.286,307.988,325.731,302.242L325.731,302.242z M325.731,302.242"/></g></g></g></svg>