<?xml version="1.0" encoding="utf-8"?><!DOCTYPE svg PUBLIC "-//W3C//DTD SVG 1.1//EN" "http://www.w3.org/Graphics/SVG/1.1/DTD/svg11.dtd"><svg version="1.1" id="Layer_1" xmlns="http://www.w3.org/2000/svg" xmlns:xlink="http://www.w3.org/1999/xlink" x="0px" y="0px" width="337.524px" height="409.601px" viewBox="0 0 337.524 409.601" enable-background="new 0 0 337.524 409.601" xml:space="preserve"><g><g><g><path fill="#141414" d="M282.561,217.637c-0.516-51.872,42.304-76.75,44.218-77.985c-24.058-35.211-61.539-40.031-74.894-40.59c-31.899-3.23-62.238,18.777-78.431,18.777c-16.144,0-41.125-18.3-67.578-17.82c-34.766,0.516-66.824,20.215-84.727,51.352c-36.121,62.68-9.25,155.535,25.957,206.371c17.204,24.883,37.715,52.832,64.649,51.832c25.937-1.035,35.746-16.781,67.105-16.781c31.356,0,40.168,16.781,67.618,16.266c27.91-0.52,45.593-25.359,62.679-50.316c19.754-28.867,27.887-56.816,28.367-58.25C336.903,300.207,283.1,279.598,282.561,217.637L282.561,217.637z M230.985,65.41C245.282,48.066,254.932,24.004,252.299,0c-20.591,0.839-45.552,13.714-60.324,31.019c-13.254,15.352-24.861,39.852-21.75,63.375C193.213,96.187,216.678,82.711,230.985,65.41L230.985,65.41z M230.985,65.41"/></g></g></g></svg>