<?xml version="1.0" encoding="utf-8"?><!DOCTYPE svg PUBLIC "-//W3C//DTD SVG 1.1//EN" "http://www.w3.org/Graphics/SVG/1.1/DTD/svg11.dtd"><svg version="1.1" id="Layer_1" xmlns="http://www.w3.org/2000/svg" xmlns:xlink="http://www.w3.org/1999/xlink" x="0px" y="0px" width="358.398px" height="409.602px" viewBox="0 0 358.398 409.602" enable-background="new 0 0 358.398 409.602" xml:space="preserve"><g><g><g><path fill="#484646" d="M332.801,128c-14.082,0-25.603,11.519-25.603,25.601v102.4c0,14.082,11.521,25.601,25.603,25.601c14.078,0,25.597-11.519,25.597-25.601v-102.4C358.398,139.519,346.879,128,332.801,128L332.801,128z M25.602,128C11.52,128,0,139.519,0,153.601v102.4c0,14.082,11.52,25.601,25.602,25.601c14.078,0,25.597-11.519,25.597-25.601v-102.4C51.199,139.519,39.68,128,25.602,128L25.602,128z M64,294.398c0,21.211,17.191,38.402,38.398,38.402h12.801v51.2c0,14.082,11.52,25.601,25.602,25.601c14.078,0,25.597-11.519,25.597-25.601v-51.2H192v51.2c0,14.082,11.521,25.601,25.603,25.601c14.078,0,25.597-11.519,25.597-25.601v-51.2H256c21.207,0,38.398-17.191,38.398-38.402V153.601H64V294.398z M226.641,35.797L242.84,4.675c0.815-1.562,0.198-3.503-1.36-4.316c-1.558-0.812-3.503-0.199-4.316,1.359l-16.444,31.598c-12.883-4.98-26.879-7.715-41.52-7.715c-14.637,0-28.637,2.735-41.519,7.715L121.234,1.722c-0.812-1.562-2.754-2.175-4.316-1.363c-1.559,0.813-2.172,2.754-1.359,4.316L131.758,35.8C95.508,52.207,69.262,86.832,64.711,128h228.977C289.137,86.832,262.891,52.207,226.641,35.797L226.641,35.797z M128,108.16c-10.25,0-18.559-8.309-18.559-18.559S117.75,71.039,128,71.039s18.559,8.312,18.559,18.562S138.25,108.16,128,108.16L128,108.16z M230.398,108.16c-10.246,0-18.558-8.309-18.558-18.559s8.312-18.562,18.558-18.562c10.25,0,18.563,8.312,18.563,18.562S240.648,108.16,230.398,108.16L230.398,108.16z M230.398,108.16"/></g></g></g></svg>