<?xml version="1.0" encoding="utf-8"?><!DOCTYPE svg PUBLIC "-//W3C//DTD SVG 1.1//EN" "http://www.w3.org/Graphics/SVG/1.1/DTD/svg11.dtd"><svg version="1.1" id="Layer_1" xmlns="http://www.w3.org/2000/svg" xmlns:xlink="http://www.w3.org/1999/xlink" x="0px" y="0px" width="346px" height="355.523px" viewBox="0 0 346 355.523" enable-background="new 0 0 346 355.523" xml:space="preserve"><g><g><g><path fill="#707171" d="M260.738,237.078c47.016,0,85.262-38.25,85.262-85.266c0-47.012-38.25-85.258-85.262-85.258c-3.289,0-6.57,0.188-9.82,0.563c-3.918-16.18-12.523-30.918-24.941-42.422C210.172,10.062,189.605,2,168.055,2c-39.648,0-73.442,27.074-82.739,64.574C39.195,67.609,2,105.449,2,151.812c0,47.02,38.246,85.266,85.262,85.266h43.136v33.254H80.895c-4.235-7.629-12.372-12.801-21.696-12.801c-13.672,0-24.801,11.125-24.801,24.801c0,13.672,11.129,24.797,24.801,24.797c9.324,0,17.461-5.172,21.696-12.797h61.503c6.629,0,12-5.375,12-12v-45.254H162v71.949c-7.625,4.234-12.801,12.371-12.801,21.695c0,13.676,11.125,24.801,24.801,24.801s24.801-11.125,24.801-24.801c0-9.324-5.176-17.461-12.801-21.695v-71.949h7.602v46.395c0,6.629,5.371,12,12,12h62.184c4.391,6.996,12.164,11.656,21.016,11.656c13.672,0,24.801-11.125,24.801-24.801c0-13.672-11.129-24.797-24.801-24.797c-9.785,0-18.262,5.695-22.293,13.941h-48.906v-34.395H260.738z M260.738,237.078"/></g></g></g></svg>