<?xml version="1.0" encoding="utf-8"?><!DOCTYPE svg PUBLIC "-//W3C//DTD SVG 1.1//EN" "http://www.w3.org/Graphics/SVG/1.1/DTD/svg11.dtd"><svg version="1.1" id="svg3430" xmlns:rdf="http://www.w3.org/1999/02/22-rdf-syntax-ns#" xmlns:cc="http://creativecommons.org/ns#" xmlns:svg="http://www.w3.org/2000/svg" xmlns:dc="http://purl.org/dc/elements/1.1/" xmlns="http://www.w3.org/2000/svg" xmlns:xlink="http://www.w3.org/1999/xlink" x="0px" y="0px" width="711.201px" height="383.598px" viewBox="0 0 711.201 383.598" enable-background="new 0 0 711.201 383.598" xml:space="preserve"><title  id="title3510">Official PHP Logo</title><g id="g3440"><g><g><defs><path id="SVGID_1_" d="M10.682,191.799c0,100.404,154.733,181.799,345.6,181.799l0,0c190.866,0,345.602-81.395,345.602-181.799l0,0C701.883,91.396,547.147,10,356.281,10l0,0C165.415,10,10.682,91.396,10.682,191.799"/></defs><clipPath id="SVGID_2_"><use xlink:href="#SVGID_1_"  overflow="visible"/></clipPath></g></g><g><g><defs><path id="SVGID_3_" d="M10.682,191.799c0,100.404,154.733,181.799,345.6,181.799l0,0c190.866,0,345.602-81.395,345.602-181.799l0,0C701.883,91.396,547.147,10,356.281,10l0,0C165.415,10,10.682,91.396,10.682,191.799"/></defs><use xlink:href="#SVGID_3_"  overflow="visible" fill="#A5A3A3"/><clipPath id="SVGID_4_"><use xlink:href="#SVGID_3_"  overflow="visible"/></clipPath><g id="g3442_8_" clip-path="url(#SVGID_4_)"><g id="g3448_8_"><g id="g3450_8_"><path id="path3462_8_" fill="#A5A3A3" d="M10.682,191.799c0,100.404,154.733,181.799,345.6,181.799l0,0c190.866,0,345.602-81.395,345.602-181.799l0,0C701.883,91.396,547.147,10,356.281,10l0,0C165.415,10,10.682,91.396,10.682,191.799"/></g></g></g></g></g><g><g><defs><path id="SVGID_5_" d="M10.682,191.799c0,100.404,154.733,181.799,345.6,181.799l0,0c190.866,0,345.602-81.395,345.602-181.799l0,0C701.883,91.396,547.147,10,356.281,10l0,0C165.415,10,10.682,91.396,10.682,191.799"/></defs><clipPath id="SVGID_6_"><use xlink:href="#SVGID_5_"  overflow="visible"/></clipPath></g></g></g><g><g id="g3484" transform="translate(161.7344,145.3066)"><path id="path3486" fill="#FFFFFF" d="M31.87,80.867c15.081,0,26.34-2.781,33.464-8.264c7.048-5.427,11.915-14.828,14.466-27.941c2.379-12.258,1.473-20.816-2.692-25.436c-4.259-4.717-13.466-7.109-27.366-7.109H25.64l-13.361,68.75H31.87z M-46.958,165.555c-1.119,0-2.182-0.5-2.893-1.365c-0.713-0.864-1.002-2.002-0.788-3.101L-15.229-21.1c0.343-1.762,1.886-3.033,3.681-3.033H64.77c23.984,0,41.837,6.512,53.059,19.358c11.281,12.913,14.766,30.965,10.354,53.651c-1.795,9.242-4.883,17.826-9.176,25.511c-4.299,7.694-9.98,14.813-16.889,21.163c-8.271,7.74-17.631,13.352-27.795,16.654c-10.004,3.259-22.852,4.912-38.186,4.912H5.235L-3.59,162.52c-0.343,1.762-1.886,3.035-3.681,3.035H-46.958z"/></g><g id="g3492" transform="translate(311.583,116.3066)"><path id="path3494" fill="#FFFFFF" d="M69.332,146.117c-1.119,0-2.182-0.5-2.893-1.365c-0.713-0.864-1.002-2-0.789-3.101l15.664-80.61c1.49-7.667,1.123-13.17-1.033-15.494c-1.32-1.422-5.285-3.805-17.01-3.805H34.895l-19.693,101.34c-0.342,1.762-1.887,3.035-3.682,3.035h-39.375c-1.119,0-2.182-0.5-2.894-1.365c-0.712-0.864-1.001-2.002-0.788-3.101L3.873-40.537c0.344-1.762,1.887-3.033,3.682-3.033H46.93c1.119,0,2.182,0.5,2.895,1.363c0.711,0.865,1,2.001,0.787,3.102L42.066,4.867h30.527c23.256,0,39.025,4.1,48.211,12.534c9.363,8.605,12.283,22.364,8.684,40.899l-16.475,84.781c-0.342,1.762-1.885,3.035-3.682,3.035H69.332z"/></g><g id="g3500" transform="translate(409.5498,145.3066)"><path id="path3502" fill="#FFFFFF" d="M93.824,80.867c15.08,0,26.34-2.781,33.463-8.264c7.049-5.426,11.916-14.827,14.469-27.941c2.379-12.258,1.473-20.816-2.695-25.436c-4.258-4.717-13.465-7.109-27.365-7.109H87.594l-13.361,68.75H93.824z M14.996,165.555c-1.119,0-2.182-0.5-2.893-1.365c-0.713-0.864-1.002-2.002-0.789-3.101L46.725-21.1c0.344-1.762,1.887-3.033,3.684-3.033h76.316c23.986,0,41.836,6.512,53.059,19.358c11.281,12.912,14.764,30.964,10.354,53.651c-1.797,9.242-4.883,17.826-9.176,25.511c-4.299,7.694-9.98,14.813-16.889,21.163c-8.271,7.74-17.631,13.352-27.797,16.654c-10.002,3.259-22.85,4.912-38.184,4.912H67.188l-8.82,45.402c-0.344,1.762-1.887,3.035-3.684,3.035H14.996z"/></g></g></svg>