<?xml version="1.0" encoding="utf-8"?>
<!-- Generator: Adobe Illustrator 16.0.0, SVG Export Plug-In . SVG Version: 6.00 Build 0)  -->
<!DOCTYPE svg PUBLIC "-//W3C//DTD SVG 1.1//EN" "http://www.w3.org/Graphics/SVG/1.1/DTD/svg11.dtd">
<svg version="1.1" id="Layer_1" xmlns="http://www.w3.org/2000/svg" xmlns:xlink="http://www.w3.org/1999/xlink" x="0px" y="0px"
	 width="64.615px" height="49.346px" viewBox="0 0 64.615 49.346" enable-background="new 0 0 64.615 49.346" xml:space="preserve">
<g>
	<g>
		<g>
			<path fill="#E74C3C" d="M63.167,27.222H11.055V1.836c0-0.739-0.598-1.337-1.336-1.337H1.702c-0.739,0-1.336,0.598-1.336,1.337
				v45.43c0,0.738,0.597,1.336,1.336,1.336h8.018c0.738,0,1.336-0.598,1.336-1.336v-9.353h42.759v9.353
				c0,0.738,0.598,1.336,1.337,1.336h8.017c0.739,0,1.336-0.598,1.336-1.336V28.559C64.503,27.821,63.906,27.222,63.167,27.222z"/>
			<circle fill="#E74C3C" cx="21.746" cy="16.533" r="8.017"/>
			<path fill="#E74C3C" d="M33.771,24.551h29.396c0.739,0,1.336-0.598,1.336-1.336c0-8.104-6.593-14.698-14.698-14.698H33.771
				c-0.739,0-1.337,0.598-1.337,1.335v13.363C32.435,23.953,33.032,24.551,33.771,24.551z"/>
		</g>
	</g>
</g>
</svg>
