<?xml version="1.0" encoding="utf-8"?>
<!-- Generator: Adobe Illustrator 16.0.0, SVG Export Plug-In . SVG Version: 6.00 Build 0)  -->
<!DOCTYPE svg PUBLIC "-//W3C//DTD SVG 1.1//EN" "http://www.w3.org/Graphics/SVG/1.1/DTD/svg11.dtd">
<svg version="1.1" id="Layer_1" xmlns="http://www.w3.org/2000/svg" xmlns:xlink="http://www.w3.org/1999/xlink" x="0px" y="0px"
	 width="93.121px" height="56.948px" viewBox="0 0 93.121 56.948" enable-background="new 0 0 93.121 56.948" xml:space="preserve">
<g>
	<path fill="#E74C3C" d="M88.378,24.239h-3.074V13.603c0-1.751-1.416-3.175-3.174-3.175h-5.775V4.232C76.355,1.894,74.46,0,72.123,0
		H61.137c-2.337,0-4.231,1.894-4.231,4.232v20.006H35.618V4.232C35.618,1.894,33.724,0,31.387,0H20.4
		c-2.337,0-4.231,1.894-4.231,4.232v6.196h-5.783c-1.751,0-3.173,1.423-3.173,3.175v10.635H4.231C1.894,24.239,0,26.133,0,28.47
		c0,2.337,1.894,4.238,4.231,4.238h2.988v10.638c0,1.751,1.423,3.172,3.174,3.172h5.776v6.197c0,2.337,1.894,4.232,4.231,4.232
		h10.986c2.345,0,4.231-1.895,4.231-4.232V32.702h21.287v20.007c0,2.344,1.894,4.239,4.231,4.239h10.986
		c2.337,0,4.232-1.895,4.232-4.239v-6.198h5.783c1.751,0,3.173-1.422,3.173-3.173V32.702h3.067c2.337,0,4.231-1.895,4.231-4.231
		C92.609,26.133,90.715,24.239,88.378,24.239L88.378,24.239z M88.378,24.239"/>
</g>
</svg>
