<?xml version="1.0" encoding="utf-8"?>
<!-- Generator: Adobe Illustrator 16.0.0, SVG Export Plug-In . SVG Version: 6.00 Build 0)  -->
<!DOCTYPE svg PUBLIC "-//W3C//DTD SVG 1.1//EN" "http://www.w3.org/Graphics/SVG/1.1/DTD/svg11.dtd">
<svg version="1.1" id="Layer_1" xmlns="http://www.w3.org/2000/svg" xmlns:xlink="http://www.w3.org/1999/xlink" x="0px" y="0px"
	 width="55.546px" height="49.346px" viewBox="9.069 0 55.546 49.346" enable-background="new 9.069 0 55.546 49.346"
	 xml:space="preserve">
<g>
	<g>
		<path fill="#E74C3C" d="M12.01,22.001l3.492-1.733l0.797-20.14l-3.038-0.126c-1.609-0.061-2.958,1.189-3.02,2.798L9.596,19.026
			c-0.034,0.775,0.242,1.528,0.769,2.091C10.804,21.592,11.386,21.892,12.01,22.001L12.01,22.001z M12.01,22.001"/>
	</g>
	<path fill="#E74C3C" d="M28.077,13.683l-3.218-3.397c-0.124-0.132-0.168-0.32-0.099-0.499c0.065-0.172,0.216-0.295,0.403-0.313
		l4.646-0.493c0.163-0.017,0.305-0.106,0.375-0.249l2.234-4.11c0.098-0.162,0.268-0.261,0.446-0.251
		c0.188,0.009,0.35,0.116,0.429,0.286l1.903,4.272c0.063,0.142,0.197,0.251,0.349,0.277l1.635,0.301l8.828-4.377l0.153-3.826
		L19.855,0.27L19.13,18.461l9.062-4.483C28.182,13.87,28.147,13.764,28.077,13.683L28.077,13.683z M28.077,13.683"/>
	<g>
		<path fill="#E74C3C" d="M52.693,2.567c0.875,0,1.716,0.179,2.485,0.5c-0.474-0.857-1.368-1.457-2.422-1.5l-3.038-0.118
			l-0.071,1.886l0.179-0.089C50.709,2.8,51.701,2.567,52.693,2.567L52.693,2.567z M52.693,2.567"/>
		<path fill="#E74C3C" d="M10.688,26.63c-0.689,0.34-1.215,0.947-1.467,1.67c-0.249,0.735-0.188,1.538,0.154,2.225l8.499,17.129
			c0.506,1.028,1.543,1.626,2.606,1.626c0.44,0,0.877-0.098,1.298-0.303l3.628-1.805L14.316,24.826L10.688,26.63z M10.688,26.63"/>
	</g>
	<path fill="#E74C3C" d="M63.8,24.869L55.302,7.74c-0.509-1.026-1.537-1.617-2.609-1.617c-0.438,0-0.875,0.099-1.295,0.305
		L47.77,8.232l11.089,22.347l3.627-1.796c0.698-0.348,1.225-0.957,1.466-1.68C64.202,26.373,64.148,25.566,63.8,24.869L63.8,24.869z
		 M63.8,24.869"/>
	<path fill="#E74C3C" d="M17.507,23.243l11.087,22.348L55.678,32.16L44.588,9.813L17.507,23.243z M45.402,32.949
		c-0.089,0.167-0.259,0.266-0.438,0.257l-5.451-0.125c-0.161,0-0.312,0.071-0.411,0.206l-3.191,4.416
		c-0.104,0.15-0.295,0.221-0.474,0.188c-0.188-0.029-0.339-0.163-0.393-0.341l-1.554-5.219c-0.044-0.148-0.169-0.277-0.321-0.321
		l-5.183-1.679c-0.181-0.052-0.303-0.206-0.331-0.384c-0.028-0.188,0.052-0.367,0.206-0.474l4.476-3.098
		c0.133-0.093,0.216-0.244,0.216-0.405l-0.019-5.451c0-0.177,0.108-0.347,0.268-0.43c0.17-0.089,0.367-0.071,0.511,0.046
		l4.333,3.306c0.134,0.098,0.295,0.125,0.446,0.072l5.184-1.689c0.169-0.062,0.366-0.009,0.491,0.117
		c0.134,0.134,0.179,0.331,0.116,0.51l-1.885,5.378l3.359,4.602C45.473,32.589,45.482,32.785,45.402,32.949L45.402,32.949z
		 M45.402,32.949"/>
</g>
</svg>
