<?xml version="1.0" encoding="utf-8"?>
<!-- Generator: Adobe Illustrator 16.0.0, SVG Export Plug-In . SVG Version: 6.00 Build 0)  -->
<!DOCTYPE svg PUBLIC "-//W3C//DTD SVG 1.1//EN" "http://www.w3.org/Graphics/SVG/1.1/DTD/svg11.dtd">
<svg version="1.1" id="Layer_1" xmlns="http://www.w3.org/2000/svg" xmlns:xlink="http://www.w3.org/1999/xlink" x="0px" y="0px"
	 width="64.615px" height="55.076px" viewBox="0 0 64.615 55.076" enable-background="new 0 0 64.615 55.076" xml:space="preserve">
<g>
	<path fill="#E74C3C" d="M54.155,55.076h7.835c1.181,0,2.143-0.959,2.143-2.141v-7.423C58.908,45.828,54.685,49.912,54.155,55.076
		L54.155,55.076z M54.155,55.076"/>
	<path fill="#E74C3C" d="M0,25.794v16.543c6.973,0.323,12.611,5.824,13.157,12.738h37.818c0.546-6.912,6.185-12.416,13.157-12.738
		V25.794c-6.973-0.325-12.611-5.826-13.157-12.738H13.157C12.611,19.969,6.973,25.469,0,25.794L0,25.794z M19.959,44.534
		c-2.229,0-4.035-1.808-4.035-4.036c0-2.229,1.806-4.035,4.035-4.035c2.229,0,4.036,1.806,4.036,4.035
		C23.995,42.728,22.188,44.534,19.959,44.534L19.959,44.534z M44.174,20.32c2.228,0,4.035,1.806,4.035,4.035
		s-1.807,4.036-4.035,4.036c-2.229,0-4.036-1.807-4.036-4.036S41.945,20.32,44.174,20.32L44.174,20.32z M40.185,29.638l5.613,5.001
		l-3.832,4.297l-5.614-5.003L40.185,29.638z M26.026,24.696l-9.011,5.487l-2.995-4.918l9.009-5.488L26.026,24.696z M26.026,24.696"
		/>
	<path fill="#E74C3C" d="M54.155,13.056c0.53,5.164,4.753,9.25,9.978,9.563v-7.421c0-1.181-0.961-2.142-2.143-2.142H54.155z
		 M54.155,13.056"/>
	<path fill="#E74C3C" d="M2.142,13.056C0.96,13.056,0,14.017,0,15.198v7.421c5.225-0.314,9.448-4.4,9.977-9.563H2.142z
		 M2.142,13.056"/>
	<path fill="#E74C3C" d="M23.24,9.927V6.544c0-1.144,0.932-2.076,2.077-2.076h13.5c1.145,0,2.076,0.932,2.076,2.076v3.382h4.47
		V6.544C45.362,2.935,42.426,0,38.816,0h-13.5c-3.609,0-6.546,2.935-6.546,6.544v3.382H23.24z M23.24,9.927"/>
	<path fill="#E74C3C" d="M2.142,55.076h7.835C9.448,49.912,5.225,45.828,0,45.512v7.423C0,54.116,0.96,55.076,2.142,55.076
		L2.142,55.076z M2.142,55.076"/>
</g>
</svg>
