<?xml version="1.0" encoding="utf-8"?>
<!-- Generator: Adobe Illustrator 16.0.0, SVG Export Plug-In . SVG Version: 6.00 Build 0)  -->
<!DOCTYPE svg PUBLIC "-//W3C//DTD SVG 1.1//EN" "http://www.w3.org/Graphics/SVG/1.1/DTD/svg11.dtd">
<svg version="1.1" id="Layer_1" xmlns="http://www.w3.org/2000/svg" xmlns:xlink="http://www.w3.org/1999/xlink" x="0px" y="0px"
	 width="41.5px" height="48.683px" viewBox="22.5 0.663 41.5 48.683" enable-background="new 22.5 0.663 41.5 48.683"
	 xml:space="preserve">
<g>
	<path fill="#E74C3C" d="M54.565,13.836c-4.909,0-8.903,3.994-8.903,8.903v24.356c0,1.241,1.009,2.251,2.25,2.251h13.305
		c1.242,0,2.251-1.01,2.251-2.251V22.739C63.468,17.829,59.474,13.836,54.565,13.836L54.565,13.836z M54.565,13.836"/>
	<path fill="#E74C3C" d="M40.046,33.729L39.525,19.34c-0.055-1.534-1.15-2.827-2.582-3.203l0.009-6.727
		c0.002-1.095-0.656-2.501-1.495-3.204l-6.105-5.097c-0.354-0.295-0.71-0.446-1.056-0.446c-0.365,0-0.694,0.178-0.902,0.486
		c-0.172,0.257-0.26,0.593-0.26,0.999l0.013,13.987c-1.433,0.376-2.529,1.67-2.585,3.205l-0.52,14.389
		c-0.895,0.298-1.543,1.142-1.543,2.135v11.23c0,1.241,1.01,2.251,2.251,2.251h14.586c1.241,0,2.251-1.01,2.251-2.251v-11.23
		C41.589,34.871,40.94,34.027,40.046,33.729L40.046,33.729z M26.773,33.614l0.453-12.535c0.028-0.771,0.683-1.402,1.455-1.402h6.726
		c0.772,0,1.427,0.631,1.455,1.402l0.453,12.535H26.773z M26.773,33.614"/>
</g>
</svg>
