<?xml version="1.0" encoding="utf-8"?>
<!-- Generator: Adobe Illustrator 16.0.0, SVG Export Plug-In . SVG Version: 6.00 Build 0)  -->
<!DOCTYPE svg PUBLIC "-//W3C//DTD SVG 1.1//EN" "http://www.w3.org/Graphics/SVG/1.1/DTD/svg11.dtd">
<svg version="1.1" id="Layer_1" xmlns="http://www.w3.org/2000/svg" xmlns:xlink="http://www.w3.org/1999/xlink" x="0px" y="0px"
	 width="64.615px" height="56.948px" viewBox="0 0 64.615 56.948" enable-background="new 0 0 64.615 56.948" xml:space="preserve">
<g>
	<path fill="#E74C3C" d="M59.527,19.536h-4.049c0.476,2.669-0.666,5.482-3.107,6.993c-1.079,0.667-2.317,1.02-3.581,1.02
		c-2.379,0-4.546-1.206-5.797-3.228c-0.884-1.43-1.17-3.143-0.874-4.784h-18.62c0.295,1.642,0.008,3.354-0.875,4.785
		c-1.25,2.021-3.417,3.227-5.796,3.227c-1.266,0-2.504-0.353-3.582-1.02c-2.441-1.511-3.583-4.324-3.107-6.993H6.088
		C3.278,19.536,1,21.814,1,24.624c0,2.809,2.278,5.086,5.088,5.086h0.561l3.732,22.694c0.391,2.375,2.442,4.118,4.85,4.118h35.154
		c2.407,0,4.458-1.744,4.849-4.118l3.73-22.693h0.563c2.811,0,5.088-2.278,5.088-5.087C64.615,21.814,62.337,19.536,59.527,19.536
		L59.527,19.536z M22.697,50.635c-0.153,0.023-0.305,0.035-0.456,0.035c-1.485,0-2.787-1.087-3.016-2.601l-2.113-14.084
		c-0.25-1.668,0.898-3.222,2.566-3.473c1.67-0.243,3.221,0.899,3.472,2.565l2.114,14.086C25.514,48.831,24.365,50.385,22.697,50.635
		L22.697,50.635z M35.861,47.615c0,1.687-1.366,3.054-3.053,3.054c-1.687,0-3.052-1.367-3.052-3.054V33.53
		c0-1.685,1.365-3.052,3.052-3.052s3.053,1.367,3.053,3.052V47.615z M48.505,33.984l-2.114,14.084
		c-0.228,1.514-1.529,2.601-3.015,2.601c-0.151,0-0.303-0.012-0.457-0.035c-1.668-0.25-2.816-1.804-2.566-3.472l2.114-14.086
		c0.251-1.667,1.795-2.816,3.472-2.565C47.606,30.761,48.755,32.316,48.505,33.984L48.505,33.984z M48.505,33.984"/>
	<path fill="#E74C3C" d="M14.316,24.798c0.782,0.484,1.652,0.716,2.511,0.716c1.6,0,3.164-0.804,4.065-2.264
		c0.831-1.344,0.902-2.935,0.354-4.296l9.065-14.65c0.819-1.325,0.41-3.06-0.915-3.881C28.934,0.137,28.421,0,27.916,0
		c-0.944,0-1.867,0.474-2.401,1.338l-9.062,14.651c-1.463,0.117-2.854,0.889-3.685,2.233C11.379,20.466,12.074,23.41,14.316,24.798
		L14.316,24.798z M14.316,24.798"/>
	<path fill="#E74C3C" d="M44.37,18.954c-0.548,1.361-0.478,2.952,0.353,4.296c0.903,1.461,2.465,2.264,4.066,2.264
		c0.859,0,1.728-0.231,2.511-0.716c2.242-1.388,2.935-4.332,1.547-6.576c-0.829-1.344-2.222-2.116-3.683-2.233L40.099,1.338
		C39.565,0.474,38.644,0,37.7,0c-0.505,0-1.018,0.137-1.482,0.423c-1.324,0.821-1.73,2.556-0.914,3.881L44.37,18.954z M44.37,18.954
		"/>
</g>
</svg>
