<?xml version="1.0" encoding="utf-8"?>
<!-- Generator: Adobe Illustrator 16.0.0, SVG Export Plug-In . SVG Version: 6.00 Build 0)  -->
<!DOCTYPE svg PUBLIC "-//W3C//DTD SVG 1.1//EN" "http://www.w3.org/Graphics/SVG/1.1/DTD/svg11.dtd">
<svg version="1.1" id="Layer_1" xmlns="http://www.w3.org/2000/svg" xmlns:xlink="http://www.w3.org/1999/xlink" x="0px" y="0px"
	 width="51.75px" height="48.683px" viewBox="15.75 0.663 51.75 48.683" enable-background="new 15.75 0.663 51.75 48.683"
	 xml:space="preserve">
<g>
	<g>
		<path fill="#E74C3C" d="M56.164,30.366l6.202,6.202c2.844,2.843,2.844,7.471,0,10.316c-1.377,1.377-3.209,2.136-5.158,2.136
			c-1.948,0-3.781-0.758-5.159-2.136l-8.611-8.612l2.586-2.587l7.298,7.298l1.582-1.582l-7.298-7.298l1.978-1.978l7.298,7.298
			l1.582-1.582l-7.298-7.298l0.11-0.11c0.74,0.102,1.486,0.153,2.231,0.153C54.407,30.586,55.294,30.51,56.164,30.366L56.164,30.366
			z M27.806,8.962l-3.752-4.664l-5.126-3.635l-2.783,2.783l3.636,5.125l4.663,3.752L33.119,21l3.361-3.361L27.806,8.962z
			 M66.519,10.452c1.41,4.648,0.278,9.902-3.396,13.575c-2.656,2.656-6.136,3.982-9.616,3.982c-1.039,0-2.079-0.118-3.096-0.355
			L28.719,49.346l-7.983-2.168l-2.168-7.983l21.692-21.69c-1.029-4.424,0.178-9.264,3.626-12.712
			c2.655-2.656,6.135-3.982,9.615-3.982c1.336,0,2.672,0.196,3.96,0.586l-7.177,7.176l1.914,7.143l7.143,1.914L66.519,10.452z
			 M27.893,40.021c-0.37-0.371-0.855-0.555-1.342-0.555c-0.485,0-0.971,0.184-1.342,0.555c-0.741,0.741-0.741,1.943,0,2.683
			c0.371,0.371,0.855,0.557,1.342,0.557s0.971-0.186,1.342-0.557C28.635,41.964,28.635,40.762,27.893,40.021L27.893,40.021z
			 M27.893,40.021"/>
	</g>
</g>
</svg>
